<svg width="91" height="91" viewBox="0 0 91 91" fill="none" xmlns="http://www.w3.org/2000/svg">
<path d="M45.3615 3.78564C34.3588 3.78564 23.8067 8.15645 16.0266 15.9365C8.24656 23.7166 3.87575 34.2687 3.87575 45.2714C3.87575 56.2741 8.24656 66.8262 16.0266 74.6063C23.8067 82.3864 34.3588 86.7572 45.3615 86.7572C56.3642 86.7572 66.9163 82.3864 74.6964 74.6063C82.4765 66.8262 86.8473 56.2741 86.8473 45.2714C86.8473 34.2687 82.4765 23.7166 74.6964 15.9365C66.9163 8.15645 56.3642 3.78564 45.3615 3.78564Z" fill="#597CE9"/>
<path d="M45.3594 67.6086C46.0296 67.6086 46.6487 67.2895 47.8933 66.664L57.8754 61.5836C62.2984 59.337 64.5067 58.2201 64.5067 56.4394V34.1009M45.3594 67.6086C44.6893 67.6086 44.0702 67.2895 42.8256 66.664L32.8435 61.5836C28.4205 59.337 26.2122 58.2201 26.2122 56.4394V34.1009M45.3594 67.6086V45.2701M64.5067 34.1009C64.5067 32.3202 62.2984 31.2033 57.8754 28.9566L47.8933 23.8762C46.6487 23.2508 46.0296 22.9316 45.3594 22.9316C44.6893 22.9316 44.0702 23.2508 42.8256 23.8762L32.8435 28.9566C28.4205 31.1969 26.2122 32.3202 26.2122 34.1009M64.5067 34.1009C64.5067 35.8816 62.2984 36.9985 57.8754 39.2451L47.8933 44.3255C46.6487 44.951 46.0296 45.2701 45.3594 45.2701M26.2122 34.1009C26.2122 35.8816 28.4205 36.9985 32.8435 39.2451L42.8256 44.3255C44.0702 44.951 44.6893 45.2701 45.3594 45.2701" stroke="#E8ECFA" stroke-width="1.5" stroke-linecap="round" stroke-linejoin="round"/>
</svg>
