<svg width="119" height="119" viewBox="0 0 119 119" fill="none" xmlns="http://www.w3.org/2000/svg">
<rect y="0.84668" width="118.062" height="118.062" rx="16" fill="#6486EB"/>
<rect x="14.1666" y="15.0142" width="90.5144" height="90.5144" rx="5" fill="#597CE9"/>
<path d="M83.1982 62.7291C87.3425 62.7291 90.7852 66.1324 89.8718 70.1785C88.9638 74.2006 87.3234 78.0434 85.0112 81.5071C81.3008 87.0653 76.027 91.3975 69.8567 93.9557C63.6865 96.5139 56.8969 97.1832 50.3466 95.8791C43.7963 94.5749 37.7794 91.3558 33.0569 86.6289C28.3344 81.902 25.1184 75.8795 23.8154 69.323C22.5125 62.7666 23.1812 55.9707 25.737 49.7947C28.2928 43.6186 32.6209 38.3399 38.174 34.626C41.6344 32.3116 45.4736 30.6697 49.4919 29.7609C53.5343 28.8466 56.9344 32.2925 56.9344 36.4407V43.9517C56.9344 54.3222 65.3334 62.7291 75.6942 62.7291H83.1982Z" fill="#F9FAFE"/>
<path d="M63.7937 35.4048C63.7937 28.0744 69.9499 21.8995 76.716 24.7047C80.8129 26.4033 84.5355 28.893 87.6711 32.0315C90.8067 35.1701 93.294 38.8961 94.991 42.9968C97.7936 49.7693 91.6245 55.9313 84.3009 55.9313H80.6776C71.3528 55.9313 63.7937 48.3651 63.7937 39.0316V35.4048Z" fill="#F9FAFE"/>
</svg>
