<svg width="91" height="92" viewBox="0 0 91 92" fill="none" xmlns="http://www.w3.org/2000/svg">
<rect width="90.5144" height="90.5144" transform="translate(0.166565 0.952148)" fill="#6486EB"/>
<circle cx="45.4238" cy="46.2093" r="45.2572" fill="white"/>
<path d="M56.7713 65.8762C56.6702 67.5791 56.4801 69.2756 56.2016 70.9586C56.2016 70.9586 55.9322 75.1579 53.3884 76.4296C50.955 77.6439 49.3032 79.4852 45.5228 79.6133H45.2887C41.5083 79.4852 39.8565 77.6439 37.4275 76.4296C34.8837 75.1579 34.6099 70.9586 34.6099 70.9586C34.3314 69.2756 34.1412 67.5791 34.0402 65.8762C34.0402 64.8386 38.589 59.3058 39.3398 58.2372C40.0906 57.1686 41.1505 57.2746 41.1505 57.7957C40.5454 59.6988 39.1234 65.6952 42.3959 66.1854L45.3505 64.8121V64.7679L45.4256 64.7988L45.4963 64.7679V64.8121L48.4464 66.1854C51.7189 65.7041 50.2969 59.7076 49.6963 57.7957C49.6963 57.2923 50.7739 57.1863 51.507 58.2372C52.2401 59.2881 56.7713 64.8386 56.7713 65.8762Z" fill="#CFCFD3"/>
<path d="M34.5711 12.2915C34.5711 12.2915 32.6986 22.1869 30.826 27.1324C28.9535 32.0779 25.204 37.0235 27.0765 51.86C40.1358 36.838 39.99 30.6473 34.5711 12.2915Z" fill="#1E1E1E"/>
<path d="M56.2739 12.2915C56.2739 12.2915 58.1465 22.1869 60.0234 27.1324C61.9004 32.0779 65.6455 37.0235 63.7685 51.86C50.7137 36.838 50.8373 30.6473 56.2739 12.2915Z" fill="#1E1E1E"/>
<path d="M37.5972 53.9893C31.0918 55.0093 30.8622 47.5954 35.6142 47.2466C37.6369 46.9463 40.1896 48.9245 40.2603 51.1809C40.2603 52.9515 39.1341 53.9893 37.5972 53.9893Z" fill="#1E1E1E"/>
<path d="M53.2397 53.9893C59.745 55.0093 59.9791 47.5954 55.2226 47.2466C53.1999 46.9463 50.6472 48.9245 50.581 51.1809C50.5898 52.9515 51.7116 53.9893 53.2397 53.9893Z" fill="#1E1E1E"/>
<path d="M39.0357 49.825C39.0357 50.8539 37.4325 50.8539 37.4502 49.825C37.4678 48.7962 39.0533 48.7918 39.0357 49.825Z" fill="#F9FAFE"/>
<path d="M53.2999 49.8241C53.2999 50.853 51.6969 50.853 51.7101 49.8241C51.7101 49.6133 51.7938 49.4112 51.9429 49.2621C52.092 49.113 52.2942 49.0293 52.5051 49.0293C52.7159 49.0293 52.9181 49.113 53.0672 49.2621C53.2162 49.4112 53.2999 49.6133 53.2999 49.8241Z" fill="#F9FAFE"/>
<path d="M43.0035 67.8535C41.0471 66.0872 40.5789 62.8771 45.0969 62.4267C45.3157 62.4046 45.5361 62.4046 45.7549 62.4267C50.2729 62.8683 49.8003 66.0917 47.8439 67.8535C47.1833 68.4589 46.3198 68.7947 45.4237 68.7947C44.5276 68.7947 43.6641 68.4589 43.0035 67.8535Z" fill="#1E1E1E"/>
</svg>
