<svg width="91" height="92" viewBox="0 0 91 92" fill="none" xmlns="http://www.w3.org/2000/svg">
<path d="M45.3615 86.4665C67.5949 86.4665 85.6187 68.4428 85.6187 46.2093C85.6187 23.9759 67.5949 5.95215 45.3615 5.95215C23.1281 5.95215 5.10431 23.9759 5.10431 46.2093C5.10431 68.4428 23.1281 86.4665 45.3615 86.4665Z" fill="#627EEA"/>
<path d="M46.616 16.0117V38.3304L65.479 46.7604L46.616 16.0117Z" fill="white" fill-opacity="0.602"/>
<path d="M46.6162 16.0117L27.7532 46.7604L46.6162 38.3304V16.0117Z" fill="white"/>
<path d="M46.616 61.2193V76.3845L65.49 50.269L46.616 61.2193Z" fill="white" fill-opacity="0.602"/>
<path d="M46.6162 76.3845V61.2193L27.7532 50.269L46.6162 76.3845Z" fill="white"/>
<path d="M46.616 57.7118L65.479 46.7616L46.616 38.3315V57.7118Z" fill="white" fill-opacity="0.2"/>
<path d="M27.7532 46.7616L46.6162 57.7118V38.3315L27.7532 46.7616Z" fill="white" fill-opacity="0.602"/>
</svg>
