<svg width="80" height="73" viewBox="0 0 80 73" fill="none" xmlns="http://www.w3.org/2000/svg">
<rect y="0.563232" width="80" height="72" rx="16" fill="#597CE9"/>
<path d="M25.1351 25.1087C25.1351 19.8369 29.1283 15.5632 34.0541 15.5632C38.9798 15.5632 42.973 19.8369 42.973 25.1087C42.973 30.3805 38.9798 34.6541 34.0541 34.6541C29.1283 34.6541 25.1351 30.3805 25.1351 25.1087Z" fill="#F9FAFE"/>
<path d="M42.0201 16.5353C44.0776 18.7252 45.3514 21.7577 45.3514 25.1087C45.3514 28.4596 44.0776 31.4922 42.0201 33.6821C43.2047 34.3046 44.5372 34.6541 45.9459 34.6541C50.8717 34.6541 54.8649 30.3805 54.8649 25.1087C54.8649 19.8369 50.8717 15.5632 45.9459 15.5632C44.5372 15.5632 43.2047 15.9128 42.0201 16.5353Z" fill="#F9FAFE"/>
<path d="M18 48.0178C18 42.746 21.9931 38.4723 26.9189 38.4723H41.1892C46.115 38.4723 50.1081 42.746 50.1081 48.0178C50.1081 56.2905 46.115 57.5632 41.1892 57.5632H26.9189C21.9931 57.5632 18 56.2905 18 48.0178Z" fill="#F9FAFE"/>
<path d="M52.4865 48.0178C52.4865 51.1996 52.4865 52.4723 51.2973 55.0178H53.0811C58.0069 55.0178 62 53.745 62 45.4723C62 40.2005 58.0069 35.9269 53.0811 35.9269H42.0201C48.2594 35.9269 52.4865 42.2905 52.4865 48.0178Z" fill="#F9FAFE"/>
</svg>
