<svg width="80" height="73" viewBox="0 0 80 73" fill="none" xmlns="http://www.w3.org/2000/svg">
<rect y="0.563232" width="80" height="72" rx="16" fill="#597CE9"/>
<path d="M40 15.5632C33.9071 15.5632 28.9677 19.9203 28.9677 25.2949C28.9677 30.6696 33.9071 35.0266 40 35.0266C46.0929 35.0266 51.0323 30.6696 51.0323 25.2949C51.0323 19.9203 46.0929 15.5632 40 15.5632Z" fill="#F9FAFE"/>
<path d="M33.0323 38.0998C26.9393 38.0998 22 42.4569 22 47.8315C22 55.5145 26.9393 57.5632 33.0323 57.5632H46.9677C53.0607 57.5632 58 55.5145 58 47.8315C58 42.4569 53.0607 38.0998 46.9677 38.0998H33.0323Z" fill="#F9FAFE"/>
</svg>
