<svg width="83" height="27" viewBox="0 0 83 27" fill="none" xmlns="http://www.w3.org/2000/svg">
<path d="M35.0422 21.2078C33.2957 21.2078 31.9521 20.7461 31.0085 19.8206C30.066 18.8961 29.5947 17.5225 29.5947 15.6999C29.5947 13.8773 30.0167 12.5048 30.8618 11.5793C31.7069 10.6548 32.9259 10.192 34.5186 10.192C37.4237 10.192 38.925 11.8512 39.0235 15.1687C39.0366 15.4955 38.919 15.7674 38.6668 15.9846C38.4156 16.2028 38.1221 16.3114 37.7865 16.3114H31.9833C31.8717 16.3114 31.8155 16.3662 31.8155 16.4748C31.9833 18.5693 33.1279 19.6161 35.2512 19.6161C35.9908 19.6161 36.7173 19.5007 37.4298 19.2688C37.6388 19.2013 37.8347 19.2277 38.0166 19.35C38.1975 19.4723 38.289 19.6425 38.289 19.8597C38.289 20.118 38.2055 20.3489 38.0377 20.5533C37.8699 20.7568 37.6539 20.8938 37.3886 20.9613C36.6198 21.1247 35.838 21.2059 35.0422 21.2059V21.2078ZM34.5186 11.7837C32.9259 11.7837 32.0325 12.7014 31.8366 14.5377C31.8084 14.66 31.8647 14.7216 32.0044 14.7216H36.6972C36.8088 14.7216 36.865 14.66 36.865 14.5377C36.7816 12.7024 35.9988 11.7837 34.5186 11.7837Z" fill="#545456"/>
<path d="M43.5908 20.6776C43.3667 20.8957 43.0944 21.0043 42.7738 21.0043C42.4533 21.0043 42.1799 20.8957 41.9568 20.6776C41.7338 20.4604 41.6212 20.1953 41.6212 19.8822V7.23553C41.6212 6.92247 41.7328 6.65735 41.9568 6.44016C42.1799 6.22297 42.4523 6.1134 42.7738 6.1134C43.0954 6.1134 43.3667 6.222 43.5908 6.44016C43.8139 6.65735 43.9264 6.92345 43.9264 7.23553V12.0087C43.9264 12.131 43.9897 12.1926 44.1153 12.1926H50.2331C50.3587 12.1926 50.422 12.131 50.422 12.0087V7.23553C50.422 6.92247 50.5336 6.65735 50.7577 6.44016C50.9807 6.22297 51.2531 6.1134 51.5746 6.1134C51.8962 6.1134 52.1675 6.222 52.3916 6.44016C52.6147 6.65735 52.7272 6.92345 52.7272 7.23553V19.8822C52.7272 20.1953 52.6147 20.4604 52.3916 20.6776C52.1675 20.8957 51.8952 21.0043 51.5746 21.0043C51.2541 21.0043 50.9807 20.8957 50.7577 20.6776C50.5346 20.4604 50.422 20.1953 50.422 19.8822V14.1297C50.422 14.0074 50.3587 13.9458 50.2331 13.9458H44.1153C43.9897 13.9458 43.9264 14.0074 43.9264 14.1297V19.8822C43.9264 20.1953 43.8139 20.4604 43.5908 20.6776Z" fill="#545456"/>
<path d="M57.0316 6.03147C57.2617 5.81428 57.5311 5.70471 57.8385 5.70471C58.146 5.70471 58.4143 5.8133 58.6455 6.03147C58.8756 6.24865 58.9911 6.51476 58.9911 6.82684C58.9911 7.13892 58.8756 7.40502 58.6455 7.62221C58.4153 7.84037 58.146 7.94897 57.8385 7.94897C57.5311 7.94897 57.2627 7.84037 57.0316 7.62221C56.8015 7.40502 56.6859 7.1399 56.6859 6.82684C56.6859 6.51378 56.8015 6.24865 57.0316 6.03147ZM58.6445 20.6778C58.4143 20.896 58.145 21.0046 57.8375 21.0046C57.53 21.0046 57.2617 20.896 57.0306 20.6778C56.8005 20.4606 56.6849 20.1955 56.6849 19.8824V11.5198C56.6849 11.2068 56.8005 10.9416 57.0306 10.7244C57.2607 10.5073 57.53 10.3977 57.8375 10.3977C58.145 10.3977 58.4133 10.5063 58.6445 10.7244C58.8746 10.9416 58.9901 11.2077 58.9901 11.5198V19.8824C58.9901 20.1955 58.8746 20.4606 58.6445 20.6778Z" fill="#545456"/>
<path d="M65.0005 19.9022L62.0883 11.4984C61.9908 11.2265 62.029 10.975 62.2039 10.7442C62.3787 10.5133 62.6129 10.3978 62.9063 10.3978C63.255 10.3978 63.5725 10.4996 63.8589 10.704C64.1453 10.9075 64.3372 11.1736 64.4347 11.4994L66.8655 19.7603C66.8655 19.774 66.8726 19.7808 66.8866 19.7808C66.8997 19.7808 66.9077 19.774 66.9077 19.7603L69.3587 11.4789C69.4561 11.1658 69.6421 10.9075 69.9144 10.704C70.1867 10.5005 70.4902 10.3978 70.8258 10.3978C71.1192 10.3978 71.3463 10.5103 71.5071 10.7344C71.6679 10.9584 71.6991 11.2 71.6016 11.4583L68.6894 19.9031C68.5769 20.2299 68.3789 20.495 68.0925 20.6985C67.8061 20.902 67.4815 21.0047 67.1178 21.0047H66.5731C66.2234 21.0047 65.9029 20.903 65.6094 20.6985C65.316 20.494 65.113 20.2299 65.0015 19.9031L65.0005 19.9022Z" fill="#545456"/>
<path d="M78.077 21.2078C76.3305 21.2078 74.987 20.7461 74.0434 19.8206C73.1008 18.8961 72.6295 17.5225 72.6295 15.6999C72.6295 13.8773 73.0516 12.5048 73.8967 11.5793C74.7418 10.6548 75.9607 10.192 77.5525 10.192C80.4576 10.192 81.9589 11.8512 82.0574 15.1687C82.0714 15.4955 81.9529 15.7674 81.7016 15.9846C81.4504 16.2028 81.157 16.3114 80.8214 16.3114H75.0181C74.9056 16.3114 74.8503 16.3662 74.8503 16.4748C75.0181 18.5693 76.1627 19.6161 78.286 19.6161C79.0266 19.6161 79.7522 19.5007 80.4646 19.2688C80.6736 19.2013 80.8696 19.2277 81.0515 19.35C81.2334 19.4723 81.3238 19.6425 81.3238 19.8597C81.3238 20.118 81.2404 20.3489 81.0726 20.5533C80.9048 20.7568 80.6877 20.8938 80.4234 20.9613C79.6557 21.1247 78.8729 21.2059 78.077 21.2059V21.2078ZM77.5535 11.7837C75.9607 11.7837 75.0674 12.7014 74.8714 14.5377C74.8433 14.66 74.8996 14.7216 75.0392 14.7216H79.7321C79.8436 14.7216 79.8999 14.66 79.8999 14.5377C79.8165 12.7024 79.0337 11.7837 77.5535 11.7837Z" fill="#545456"/>
<path d="M13.3374 5.42861C13.2158 5.38556 13.066 5.41589 12.9877 5.55187L7.72908 14.6874C7.71903 14.7089 7.713 14.7324 7.71199 14.7559C7.71199 14.7725 7.714 14.7901 7.71702 14.8058L6.97139 16.1441C6.97139 16.1441 6.18456 17.3709 6.9523 19.0291C7.47484 20.161 10.9126 24.7024 12.3214 26.5426C11.9928 26.5005 11.6702 26.3978 11.3748 26.2315L1.90776 20.9095C1.12495 20.4692 0.642609 19.6562 0.642609 18.7748V8.13462C0.642609 7.49579 0.89785 6.88923 1.33699 6.43823C2.96088 5.79939 6.96637 4.22724 8.16218 3.8046C9.91873 3.1824 11.1166 4.03744 11.1166 4.03744L13.3374 5.42763V5.42861Z" fill="#545456"/>
<path d="M18.0391 11.288L17.5568 12.0873C17.5397 12.0374 17.4975 11.9973 17.4452 11.9787H13.8015C13.6447 11.9787 13.5191 11.8554 13.5191 11.7038V5.68715C13.5191 5.56095 13.4438 5.4729 13.3463 5.43377L13.3383 5.42887L11.1175 4.03869C11.1175 4.03869 9.91963 3.18364 8.16309 3.80585C6.96727 4.22848 2.96179 5.80063 1.33789 6.43947C1.50269 6.27022 1.69362 6.1225 1.90766 6.00119L11.3737 0.680136C11.8098 0.436536 12.3012 0.327943 12.7866 0.355336C13.901 1.91281 17.6382 7.17419 18.1567 8.40393C18.8672 10.0876 18.0381 11.288 18.0381 11.288H18.0391Z" fill="#545456"/>
<path d="M24.6336 8.1349V18.3377C23.5524 18.9453 18.7681 21.6278 17.4426 22.3126C15.7032 23.2098 14.3235 22.4975 14.3235 22.4975L12.0655 21.4977C12.1519 21.4928 12.2363 21.4478 12.2876 21.3578L17.5482 12.2223C17.5582 12.2008 17.5642 12.1773 17.5652 12.1538C17.5673 12.1303 17.5622 12.1069 17.5542 12.0853L18.0365 11.2861C18.0365 11.2861 18.8656 10.0857 18.1551 8.40198C17.6366 7.1742 13.8994 1.9138 12.785 0.355347C13.1719 0.37687 13.5567 0.484484 13.9024 0.680147L23.3685 6.00022C24.1513 6.44046 24.6336 7.25442 24.6336 8.1349Z" fill="#545456"/>
<path d="M24.634 18.3386V18.7759C24.634 19.6574 24.1516 20.4703 23.3688 20.9106L13.9028 26.2326C13.4154 26.5065 12.8587 26.6103 12.3191 26.5437C10.9102 24.7025 7.47249 20.1622 6.94995 19.0303C6.18222 17.371 6.96904 16.1452 6.96904 16.1452L7.71467 14.8069C7.72874 14.8656 7.77396 14.9145 7.83325 14.9341H11.476C11.6327 14.9341 11.7603 15.0583 11.7603 15.209V21.2256C11.7603 21.2912 11.7815 21.345 11.8126 21.389C11.8699 21.4663 11.9674 21.5083 12.0648 21.5005H12.0668L14.3248 22.5004C14.3248 22.5004 15.7045 23.2126 17.444 22.3154C18.7694 21.6297 23.5537 18.9481 24.635 18.3406L24.634 18.3386Z" fill="#545456"/>
</svg>
