<svg width="109" height="31" viewBox="0 0 109 31" fill="none" xmlns="http://www.w3.org/2000/svg">
<path d="M67.1259 24.8473C66.8624 25.1539 66.6163 25.4161 66.3985 25.6998C65.6603 26.6584 64.7769 27.4558 63.8236 28.202C60.6893 30.6545 54.605 31.6898 51.8674 28.0662C51.5783 27.683 51.2031 27.3173 51.0821 26.7996C50.8213 25.6944 49.7496 27.5015 49.4874 27.7986C48.8178 28.5583 48.0675 29.2575 47.1788 29.755C45.7387 30.559 43.8442 30.7486 42.4834 29.8168C41.4414 29.1042 40.878 27.8753 40.5391 26.6584C39.6813 27.7341 38.8033 28.8272 37.6523 29.5815C36.5013 30.3358 35.0128 30.7069 33.7314 30.2081C31.9767 29.5264 31.1579 27.5069 30.8594 25.6473C30.0405 26.8373 29.2069 28.0433 28.1029 28.9765C26.999 29.9096 25.5724 30.5523 24.135 30.4125C21.4821 30.1543 19.6992 27.2258 19.8955 24.5676C19.1116 24.9939 18.2672 25.3085 17.3959 25.5021C16.815 25.6312 16.2153 25.7078 15.6681 25.9418C14.7282 26.3438 14.0465 27.1613 13.2962 27.8551C11.6679 29.3624 9.52461 30.3775 7.30468 30.3963C5.08474 30.4152 2.82313 29.3489 1.64391 27.4692C0.656978 25.8961 0.490247 23.9357 0.659666 22.0869C1.11549 17.1295 4.07898 12.3025 8.62776 10.2803C10.7657 9.32966 13.3876 9.05805 15.3642 10.3085C16.7908 11.2107 17.6904 12.7986 18.0413 14.4511C18.3922 16.1036 18.247 17.8219 17.9458 19.4838C17.8759 19.8684 17.8665 20.382 18.2336 20.5165C18.3613 20.5635 18.5038 20.5433 18.637 20.5111C20.1819 20.1346 20.8381 18.3638 21.4364 16.8902C22.5067 14.2548 24.2453 11.7674 26.7731 10.4604C29.301 9.15352 32.6961 9.30008 34.7009 11.3183C36.3494 8.04022 37.0768 4.77157 39.329 1.46797C39.7135 0.903253 40.4611 0.654508 41.1402 0.576523C41.8192 0.498538 42.5654 0.764765 42.9191 1.34831C43.2996 1.97488 43.1571 2.77489 42.9742 3.48482C41.6713 8.52426 38.9122 13.0823 37.4976 18.0909C37.2408 18.9998 37.144 20.2045 37.9696 20.6617C38.5276 20.9709 39.2349 20.741 39.7714 20.3968C42.8411 18.4243 42.6824 13.7721 45.0449 10.9915C45.732 10.1835 46.731 9.52462 47.7865 9.63353C49.6474 9.8258 49.4713 11.6638 49.1432 12.9815C48.7936 14.3893 48.3876 15.7836 47.9264 17.1591C47.7462 17.6996 47.5553 18.2455 47.5203 18.8142C47.4826 19.4408 47.7112 20.499 48.4696 20.6415C50.227 20.9709 51.0741 19.5941 51.9534 18.3127C53.173 16.5352 54.3925 14.759 55.6134 12.9815C56.8384 11.1973 58.347 8.96528 60.6301 8.53502C62.1495 8.24862 63.7429 8.73536 64.7486 9.91858C65.8781 11.2484 65.0149 12.5082 63.7335 13.1563C63.1257 13.4642 62.4588 13.924 62.44 14.6044C62.4319 14.9042 62.5556 15.1893 62.6806 15.4609C63.3677 16.9655 64.1543 18.3746 64.6639 19.9598C65.5957 22.8587 67.9071 17.4253 68.2123 16.5943C69.0903 14.2051 70.8289 12.1627 72.9978 10.8436C74.8251 9.73303 77.7765 8.85233 79.8848 9.78277C81.8116 10.6312 83.3122 12.0067 83.565 14.1714C83.7909 16.1036 83.0742 18.154 81.6664 19.5013C80.541 20.5783 79.0471 21.2076 77.5102 21.3958C77.0961 21.4469 73.26 21.2129 73.2963 20.975C73.26 21.2143 73.264 21.385 73.4428 21.6069C76.1656 25.0006 82.8214 22.2415 84.5869 19.1006C85.1691 18.0653 85.5214 16.917 86.0229 15.8414C86.9749 13.803 88.4324 11.9758 90.4023 10.8477C91.6447 10.1351 93.1506 9.63218 94.5772 9.51252C95.6408 9.42243 96.7676 9.62277 97.612 10.2749C97.9199 10.5129 98.1969 10.8127 98.5667 10.9337C99.2981 11.1717 100.027 10.6339 100.667 10.2063C101.207 9.84597 101.813 9.53806 102.463 9.50983C104.522 9.42243 104.342 11.5509 103.796 12.882C103.13 14.5022 102.466 16.1238 101.8 17.744C101.548 18.3611 101.288 19.0253 101.421 19.6788C101.64 20.7571 102.746 20.8956 103.672 20.5998C104.304 20.3981 104.853 19.9813 105.286 19.4784C106.001 18.6475 108.085 17.6606 108.213 19.6008C108.241 20.0391 108.046 20.4573 107.852 20.8526C106.146 24.3149 102.677 32.7144 97.4439 30.0494C96.6466 29.6434 96.0644 28.9133 95.7174 28.0985C95.4795 27.5391 95.4969 26.8776 95.3652 26.29C95.345 26.2013 95.3221 26.1085 95.2576 26.044C95.0465 25.8288 94.7077 26.1072 94.5382 26.3573C93.1116 28.4655 90.8029 30.7231 88.0237 30.3667C86.238 30.1382 84.088 28.1966 84.2884 26.2362C84.33 25.8342 84.166 25.4927 83.8688 25.1633C83.768 25.2924 83.6793 25.4174 83.5784 25.5317C80.9013 28.5691 76.9737 31.0767 72.7423 30.2915C69.8339 29.7509 68.3307 27.6628 67.2698 25.1055C67.2402 25.0329 67.1931 24.9683 67.1245 24.85L67.1259 24.8473ZM26.597 19.5255C26.6037 20.0539 26.7489 20.5783 27.1173 20.9467C27.7359 21.5652 28.7793 21.5303 29.5672 21.1511C30.382 20.7585 31.0355 20.0432 31.3528 19.1974C31.6917 18.2939 31.7831 16.9587 30.9306 16.3954C30.0782 15.832 28.7578 16.0888 28.0007 16.6401C27.2518 17.186 26.7812 18.0667 26.6373 18.981C26.6091 19.1584 26.5943 19.3426 26.597 19.5255ZM12.6037 17.9712C12.6064 17.826 12.5997 17.6808 12.5836 17.5355C12.4303 16.2098 11.0319 15.6128 9.85807 16.148C8.74071 16.6575 7.77125 18.0895 7.66503 19.2996C7.5346 20.7813 8.88324 21.8597 10.2722 21.3474C11.5334 20.8822 12.5795 19.2996 12.6051 17.9712H12.6037ZM95.6489 17.9712C95.7914 16.1708 93.913 15.4932 92.1744 16.757C91.3381 17.3648 90.8056 18.3759 90.8002 19.4126C90.7976 20.0311 91.0275 20.6375 91.451 21.0865C92.9072 22.6341 94.7238 20.5272 95.3625 19.0509C95.5332 18.6569 95.6247 18.2952 95.6502 17.9698L95.6489 17.9712ZM57.5107 15.5268C57.1382 15.9248 56.8424 16.3913 56.5815 16.7517C55.8447 17.7614 55.1227 18.5857 54.4087 19.5134C52.9995 21.342 56.5466 21.814 57.6397 20.8015C58.3685 20.1252 58.5433 19.1517 58.4317 18.2011C58.4008 17.9389 57.4986 15.5416 57.512 15.5281L57.5107 15.5268ZM77.8813 15.68C77.8329 14.9217 77.2548 14.3193 75.9922 14.5762C75.4006 14.6958 74.8278 14.997 74.4822 15.4918C74.1366 15.9853 74.0586 16.6858 74.3813 17.1954C74.6543 17.6256 75.1693 17.865 75.6789 17.8878C77.0921 17.9497 77.9459 16.6791 77.8813 15.68Z" fill="#545456"/>
<path d="M49.587 1.1614C53.2133 1.06594 55.0689 6.00184 51.5971 7.82776C50.9625 8.16122 50.2445 8.30508 49.5305 8.35887C47.9949 8.4745 46.2107 8.12088 45.4967 6.60152C44.8634 5.25426 45.1511 3.39338 46.251 2.36613C47.0268 1.64141 48.315 1.19501 49.587 1.1614Z" fill="#545456"/>
</svg>
