<svg width="102" height="21" viewBox="0 0 102 21" fill="none" xmlns="http://www.w3.org/2000/svg">
<g clip-path="url(#clip0_6381_2636)">
<path d="M16.6073 0.819214L10.447 4.35715V15.3993L7.04811 17.3695L3.62843 15.3977V11.4554L7.04811 9.50267L9.24695 10.7779V7.58828L7.02894 6.32907L0.8703 9.90697V16.9844L7.04972 20.5431L13.2083 16.9844V5.94396L16.6281 3.97204L20.0462 5.94396V9.86861L16.6281 11.8581L14.41 10.5717V13.7453L16.6073 15.0125L22.8266 11.4746V4.35715L16.6073 0.819214Z" fill="#545456"/>
<path fill-rule="evenodd" clip-rule="evenodd" d="M52.7489 16.1487H55.5103V1.01257H52.7489V16.1487ZM34.9969 5.38945C36.3057 5.38945 37.3906 5.9152 38.2488 6.96508C39.1085 8.01494 39.5367 9.31731 39.5367 10.8722C39.5367 12.427 39.1069 13.7294 38.2488 14.7792C37.389 15.8291 36.3057 16.3548 34.9969 16.3548C34.0701 16.3548 33.2646 16.0689 32.5839 15.4952C31.916 14.9086 31.4253 14.1176 31.1105 13.1221V20.2395H28.3492V5.59401H31.1105V8.62058C31.4237 7.62504 31.916 6.84043 32.5839 6.26836C33.2662 5.68188 34.0701 5.38945 34.9969 5.38945ZM33.9933 13.838C34.7428 13.838 35.3772 13.5584 35.895 12.9991C36.4127 12.427 36.6716 11.7175 36.6716 10.8722C36.6716 10.0268 36.4127 9.34448 35.895 8.78518C35.3772 8.2131 34.7428 7.92546 33.9933 7.92546C33.1607 7.92546 32.4736 8.20511 31.9272 8.76441C31.3822 9.3237 31.1089 10.0252 31.1089 10.8706C31.1089 11.7159 31.3822 12.4254 31.9272 12.9975C32.472 13.5568 33.1607 13.8364 33.9933 13.8364V13.838ZM40.2702 10.8722C40.2702 12.427 40.8088 13.7294 41.8858 14.7792C42.9629 15.8291 44.3068 16.3548 45.9159 16.3548C47.5251 16.3548 48.869 15.8291 49.946 14.7792C51.0231 13.7294 51.5616 12.427 51.5616 10.8722C51.5616 9.31731 51.0231 8.01494 49.946 6.96508C48.869 5.9152 47.5251 5.38945 45.9159 5.38945C44.3068 5.38945 42.9629 5.9152 41.8858 6.96508C40.8088 8.01494 40.2702 9.31731 40.2702 10.8722ZM43.9312 12.9991C43.3991 12.427 43.1338 11.7175 43.1338 10.8722C43.1338 10.0268 43.3991 9.34448 43.9312 8.78518C44.4634 8.2131 45.1249 7.92546 45.9159 7.92546C46.7069 7.92546 47.3685 8.20511 47.9006 8.76441C48.4327 9.3237 48.6981 10.0252 48.6981 10.8706C48.6981 11.7159 48.4327 12.4254 47.9006 12.9975C47.3685 13.5568 46.7069 13.8364 45.9159 13.8364C45.1249 13.8364 44.4634 13.5568 43.9312 12.9975V12.9991ZM81.0205 14.7792C79.9434 13.7294 79.405 12.427 79.405 10.8722C79.405 9.31731 79.9434 8.01494 81.0205 6.96508C82.0975 5.9152 83.4414 5.38945 85.0506 5.38945C86.6597 5.38945 88.0037 5.9152 89.0808 6.96508C90.1577 8.01494 90.6963 9.31731 90.6963 10.8722C90.6963 12.427 90.1577 13.7294 89.0808 14.7792C88.0037 15.8291 86.6597 16.3548 85.0506 16.3548C83.4414 16.3548 82.0991 15.8291 81.0205 14.7792ZM82.2669 10.8722C82.2669 11.7175 82.5321 12.427 83.0644 12.9991C83.5965 13.5584 84.2579 13.838 85.0491 13.838C85.84 13.838 86.5015 13.5584 87.0338 12.9991C87.5659 12.427 87.8311 11.7175 87.8311 10.8722C87.8311 10.0268 87.5659 9.3237 87.0338 8.766C86.5015 8.20671 85.84 7.92706 85.0491 7.92706C84.2579 7.92706 83.5965 8.2131 83.0644 8.78678C82.5321 9.34607 82.2669 10.0412 82.2669 10.8737V10.8722ZM98.0454 5.38945C99.2183 5.38945 100.16 5.79855 100.867 6.61671C101.59 7.43489 101.951 8.47836 101.951 9.74556V16.1471H99.1896V10.2361C99.1896 9.55381 98.9723 8.99452 98.5344 8.55826C98.0981 8.12201 97.5533 7.90309 96.8981 7.90309C96.1614 7.90309 95.5622 8.12201 95.0988 8.55826C94.6353 8.99452 94.4036 9.55381 94.4036 10.2361V16.1471H91.6423V5.59401H94.4036V8.2946C94.6769 7.39493 95.1339 6.68542 95.7747 6.16767C96.4298 5.64993 97.1858 5.39106 98.0454 5.39106V5.38945ZM62.1435 13.3346L64.9656 5.60358H67.7684L61.9597 20.2491H59.1569L60.6302 16.5258L56.314 5.60358H59.3006L62.1435 13.3346ZM75.6208 5.59401V8.23866C75.0456 6.51284 73.625 5.59401 71.7346 5.59401C68.8805 5.59401 67.1931 8.08686 67.1931 10.7076C67.1931 13.3282 68.8678 16.0257 71.7346 16.0257C73.625 16.0257 75.0456 14.6626 75.6208 12.9368V14.9614C75.6208 15.8211 75.3412 16.529 74.7819 17.0883C74.2227 17.6476 73.542 17.9272 72.7365 17.9272C71.6451 17.9272 70.8349 17.3824 70.3028 16.2909L67.8275 17.5997C68.2909 18.4594 68.9525 19.1465 69.8122 19.6658C70.672 20.1836 71.6467 20.4425 72.7365 20.4425C74.3457 20.4425 75.6896 19.9183 76.7666 18.8669C77.8437 17.817 78.3822 16.5146 78.3822 14.9598V5.59401H75.6208ZM74.8235 12.713C74.2914 13.2452 73.6234 13.5105 72.8196 13.5105C72.0158 13.5105 71.3878 13.2452 70.8557 12.713C70.3236 12.1681 70.0583 11.5002 70.0583 10.7092C70.0583 9.91815 70.3236 9.25659 70.8557 8.72445C71.3878 8.19232 72.0414 7.92706 72.8196 7.92706C73.5979 7.92706 74.293 8.19232 74.8235 8.72445C75.3556 9.2422 75.6208 9.90377 75.6208 10.7092C75.6208 11.5145 75.3556 12.1825 74.8235 12.713Z" fill="#545456"/>
</g>
<defs>
<clipPath id="clip0_6381_2636">
<rect width="101.173" height="19.744" fill="white" transform="translate(0.784546 0.819214)"/>
</clipPath>
</defs>
</svg>
