<svg width="55" height="36" viewBox="0 0 55 36" fill="none" xmlns="http://www.w3.org/2000/svg">
<g clip-path="url(#clip0_6381_2641)">
<path d="M11.0781 13.1626L7.61573 0.067627H5.17029L11.0781 22.4115V30.9388L2.91645 0.067627H0.471008L9.8554 35.5632H11.0781H12.3001H13.5228V0.067627H11.0781V13.1626Z" fill="#545456"/>
<path d="M54.6017 35.5632L45.2173 0.067627H43.9946H42.7718H41.5491V35.5624H43.9946L50.449 29.1055L52.1563 35.5624H54.6017V35.5632ZM48.2793 20.8966L43.9953 25.1804V4.69207L48.2793 20.8966ZM43.9946 32.1025V28.6381L49.0018 23.6311L49.7264 26.3709L43.9946 32.1025Z" fill="#545456"/>
<path d="M18.6759 0.067627H17.4532H16.2305V35.5624H18.6759L25.1303 29.1055L26.8376 35.5624H29.2831L19.8979 0.067627H18.6759ZM22.96 20.8966L18.6759 25.1804V4.69207L22.96 20.8966ZM18.6759 32.1025V28.6381L23.6831 23.6311L24.4079 26.3709L18.6759 32.1025Z" fill="#545456"/>
<path d="M39.4337 21.9992L33.6354 0.067627H32.4127H31.19H29.9673V35.5624H32.4127V28.9802L34.6591 26.734L36.9935 35.5624L39.4337 35.5445L36.5931 24.8002L37.4915 23.9018L39.4337 21.9992ZM32.4127 25.5226V4.69207L36.7683 21.1672L32.4127 25.5226Z" fill="#545456"/>
</g>
<defs>
<clipPath id="clip0_6381_2641">
<rect width="54.1307" height="35.4956" fill="white" transform="translate(0.471008 0.067627)"/>
</clipPath>
</defs>
</svg>
