<svg width="114" height="21" viewBox="0 0 114 21" fill="none" xmlns="http://www.w3.org/2000/svg">
<g clip-path="url(#clip0_6381_2639)">
<mask id="mask0_6381_2639" style="mask-type:luminance" maskUnits="userSpaceOnUse" x="0" y="0" width="114" height="21">
<path d="M113.475 0.0161133H0.0584717V20.5531H113.475V0.0161133Z" fill="white"/>
</mask>
<g mask="url(#mask0_6381_2639)">
<path d="M17.9457 12.4353C18.3105 11.8139 19.2165 11.8139 19.5773 12.4353L23.4538 19.0578C23.8186 19.6792 23.3616 20.4528 22.636 20.4528H14.883C14.1573 20.4528 13.7044 19.6792 14.0652 19.0578L17.9416 12.4353H17.9457Z" fill="#545456"/>
<path d="M15.6043 8.02559C15.9571 7.40823 15.9571 6.64655 15.6043 6.0252L12.4253 0.481037C12.0686 -0.140326 11.1786 -0.140326 10.8218 0.481037L0.182481 19.0538C-0.174302 19.6751 0.270674 20.4528 0.984239 20.4528H7.33817C8.04773 20.4528 8.70117 20.072 9.05394 19.4547L15.6003 8.02559H15.6043Z" fill="#545456"/>
<path d="M37.5931 18.9053V20.4527H36.6711C35.5686 20.4527 35.1558 19.9756 35.1398 19.1659C34.5785 19.9877 33.7046 20.549 32.3897 20.549C30.5616 20.549 29.2909 19.643 29.2909 18.0795C29.2909 16.3317 30.5256 15.3776 32.8667 15.3776H34.9594V14.8684C34.9594 13.9304 34.2858 13.3531 33.1313 13.3531C32.0931 13.3531 31.4035 13.8462 31.2712 14.5878H29.5074C29.7038 12.9563 31.0868 11.918 33.2155 11.918C35.3442 11.918 36.7232 12.9883 36.7232 14.9807V18.3561C36.7232 18.7851 36.8715 18.9013 37.2483 18.9013H37.5931V18.9053ZM34.9594 16.6965H32.7865C31.7002 16.6965 31.0909 17.1093 31.0909 17.9633C31.0909 18.6728 31.6841 19.1659 32.6383 19.1659C34.0894 19.1659 34.9594 18.2919 34.9594 17.0252V16.6965Z" fill="#545456"/>
<path d="M41.4651 20.4528L38.27 12.0183H40.1823L42.5876 18.5405L44.9767 12.0183H46.8529L43.6418 20.4528H41.469H41.4651Z" fill="#545456"/>
<path d="M55.9379 18.9053V20.4527H55.0159C53.9134 20.4527 53.5005 19.9756 53.4844 19.1659C52.9232 19.9877 52.0493 20.549 50.7344 20.549C48.9064 20.549 47.6356 19.643 47.6356 18.0795C47.6356 16.3317 48.8704 15.3776 51.2115 15.3776H53.3041V14.8684C53.3041 13.9304 52.6306 13.3531 51.476 13.3531C50.4377 13.3531 49.7483 13.8462 49.6159 14.5878H47.8521C48.0486 12.9563 49.4316 11.918 51.5602 11.918C53.6889 11.918 55.0679 12.9883 55.0679 14.9807V18.3561C55.0679 18.7851 55.2163 18.9013 55.5931 18.9013H55.9379V18.9053ZM53.3 16.6965H51.1273C50.0409 16.6965 49.4316 17.1093 49.4316 17.9633C49.4316 18.6728 50.0249 19.1659 50.9789 19.1659C52.4302 19.1659 53.3 18.2919 53.3 17.0252V16.6965Z" fill="#545456"/>
<path d="M64.0828 18.8895V20.4529H57.2318V18.8895H59.7774V10.5993L57.2318 11.4411V9.86969L59.4085 9.03589H61.5573V18.8935H64.0868L64.0828 18.8895Z" fill="#545456"/>
<path d="M73.5723 18.9053V20.4527H72.6503C71.5479 20.4527 71.1349 19.9756 71.1189 19.1659C70.5576 19.9877 69.6838 20.549 68.3688 20.549C66.5409 20.549 65.27 19.643 65.27 18.0795C65.27 16.3317 66.5048 15.3776 68.8459 15.3776H70.9385V14.8684C70.9385 13.9304 70.265 13.3531 69.1104 13.3531C68.0722 13.3531 67.3827 13.8462 67.2504 14.5878H65.4865C65.683 12.9563 67.066 11.918 69.1947 11.918C71.3234 11.918 72.7024 12.9883 72.7024 14.9807V18.3561C72.7024 18.7851 72.8507 18.9013 73.2275 18.9013H73.5723V18.9053ZM70.9385 16.6965H68.7658C67.6794 16.6965 67.07 17.1093 67.07 17.9633C67.07 18.6728 67.6633 19.1659 68.6174 19.1659C70.0686 19.1659 70.9385 18.2919 70.9385 17.0252V16.6965Z" fill="#545456"/>
<path d="M83.0974 15.6422V20.4527H81.3015V15.8065C81.3015 14.3072 80.66 13.4854 79.3892 13.4854C78.0543 13.4854 77.2485 14.4556 77.2485 16.0871V20.4527H75.4686V12.0182H77.0161L77.2125 13.1207C77.7216 12.4631 78.5153 11.918 79.7981 11.918C81.5941 11.918 83.0933 12.8881 83.0933 15.6422H83.0974Z" fill="#545456"/>
<path d="M85.282 16.2515C85.282 13.6498 86.9456 11.918 89.4832 11.918C91.64 11.918 92.9905 13.1207 93.3199 15.0328H91.4598C91.2272 14.0427 90.5215 13.4333 89.4511 13.4333C88.0361 13.4333 87.094 14.6039 87.094 16.2515C87.094 17.8991 88.032 19.0336 89.4511 19.0336C90.5054 19.0336 91.2308 18.4082 91.4436 17.4341H93.3199C93.0068 19.3463 91.5721 20.549 89.4311 20.549C86.8935 20.549 85.278 18.8853 85.278 16.2515H85.282Z" fill="#545456"/>
<path d="M103.168 15.6423V20.4529H101.372V15.7907C101.372 14.3394 100.731 13.4856 99.4126 13.4856C98.0938 13.4856 97.2393 14.4757 97.2393 16.0713V20.4529H95.4598V8.92358H97.2393V13.0927C97.8168 12.3672 98.6903 11.9222 99.8254 11.9222C101.801 11.9222 103.168 13.0927 103.168 15.6463V15.6423Z" fill="#545456"/>
<path d="M107.134 16.6488V16.7329C107.182 18.1641 108.071 19.1061 109.454 19.1061C110.509 19.1061 111.315 18.5609 111.547 17.6229H113.327C113.03 19.2865 111.631 20.5533 109.555 20.5533C106.921 20.5533 105.274 18.8415 105.274 16.2559C105.274 13.6702 106.921 11.9224 109.374 11.9224C111.828 11.9224 113.427 13.4697 113.475 15.9432C113.475 16.1236 113.459 16.4042 113.427 16.6527H107.134V16.6488ZM107.198 15.3138H111.627C111.478 14.0631 110.621 13.3535 109.387 13.3535C108.284 13.3535 107.326 14.1111 107.193 15.3138H107.198Z" fill="#545456"/>
</g>
</g>
<defs>
<clipPath id="clip0_6381_2639">
<rect width="113.417" height="20.5472" fill="white" transform="translate(0.0584717 0.0161133)"/>
</clipPath>
</defs>
</svg>
