<svg width="117" height="55" viewBox="0 0 117 55" fill="none" xmlns="http://www.w3.org/2000/svg">
<g clip-path="url(#clip0_6364_5895)">
<path d="M37.1011 0.701687C37.1011 0.677246 27.0199 0.701687 27.0199 0.701687C12.0974 0.701687 0 12.8276 0 27.7852C0 42.7427 12.0974 54.8686 27.0199 54.8686L45.9749 54.8527C50.7369 54.8527 54.5973 51.0134 54.5973 46.24L54.6073 29.7212L67.7088 50.4343C69.4806 53.1222 72.5221 54.8955 75.977 54.8955C81.4461 54.8955 85.8801 50.4513 85.8801 44.9691L85.8771 29.721L98.9786 50.4341C100.75 53.1221 103.792 54.8953 107.247 54.8953C112.716 54.8953 117.15 50.4511 117.15 44.9689L117.147 0.677246H110.406V44.9694C110.406 46.7181 108.991 48.1356 107.247 48.1356C106.157 48.1356 105.195 47.5822 104.628 46.7397L81.3084 9.92192C81.1639 9.71123 80.956 9.55241 80.715 9.46868C80.474 9.38496 80.2125 9.38072 79.969 9.45658C79.7254 9.53245 79.5124 9.68444 79.3612 9.89033C79.2099 10.0962 79.1284 10.3452 79.1285 10.6009L79.1359 44.9696C79.1359 46.7182 77.7217 48.1358 75.9771 48.1358C74.8868 48.1358 73.9256 47.5823 73.3579 46.7399L50.0386 9.92192C49.8941 9.71127 49.6861 9.55249 49.4451 9.46879C49.2041 9.38509 48.9427 9.38086 48.6991 9.45672C48.4555 9.53257 48.2425 9.68454 48.0913 9.8904C47.94 10.0963 47.8585 10.3452 47.8585 10.6009L47.8533 46.2403C47.8533 47.2802 47.0125 48.1228 45.9751 48.1228L27.02 48.1086C15.8222 48.1084 6.74433 39.0092 6.74433 27.7852C6.74433 16.5611 15.8222 7.46172 27.0199 7.46172L37.1011 7.45427V0.701687Z" fill="#545456"/>
<path d="M38.1876 39.4275C38.4423 39.4275 38.6866 39.326 38.8667 39.1455C39.0468 38.9649 39.148 38.7201 39.148 38.4647L39.1506 10.6006C39.1505 5.11872 43.5842 0.674316 49.0534 0.674316C52.5205 0.674316 55.5717 2.4604 57.3408 5.16465L70.3968 25.6938L70.4203 10.6007C70.4203 5.11872 74.8539 0.674316 80.3232 0.674316C83.7903 0.674316 86.8413 2.4604 88.6106 5.16465L101.666 25.6938V0.677263H108.454L108.442 44.9694C108.442 45.2209 108.363 45.4659 108.216 45.6698C108.069 45.8738 107.862 46.0263 107.624 46.1058C107.387 46.1852 107.13 46.1877 106.89 46.1127C106.651 46.0378 106.441 45.8892 106.29 45.6881L82.9424 8.83042C82.3749 7.98834 81.4135 7.43452 80.3232 7.43452C78.5787 7.43452 77.1644 8.85209 77.1644 10.6007L77.172 44.9694C77.1719 45.2209 77.0929 45.4659 76.9462 45.6698C76.7995 45.8737 76.5925 46.0262 76.3545 46.1056C76.1165 46.1851 75.8597 46.1876 75.6203 46.1126C75.3808 46.0377 75.171 45.8892 75.0204 45.6881L51.6728 8.83042C51.105 7.98834 50.1439 7.43452 49.0534 7.43452C47.309 7.43452 45.8948 8.85209 45.8948 10.6007L45.909 45.2418C45.909 45.4971 45.8078 45.742 45.6276 45.9225C45.4475 46.1031 45.2032 46.2045 44.9485 46.2045L27.0196 46.2008C16.9063 46.2008 8.70758 37.9224 8.70758 27.7853C8.70758 17.6482 16.9063 9.3695 27.0196 9.3695C27.0196 9.3695 37.1009 9.33015 37.1009 9.3695V16.1978L27.0196 16.1902C20.631 16.1902 15.4519 21.3815 15.4519 27.7853C15.4519 34.1888 20.631 39.4406 27.0196 39.4406L38.1876 39.4275Z" fill="#545456"/>
</g>
<defs>
<clipPath id="clip0_6364_5895">
<rect width="117" height="54" fill="white" transform="translate(0 0.674316)"/>
</clipPath>
</defs>
</svg>
