<svg width="232" height="55" viewBox="0 0 232 55" fill="none" xmlns="http://www.w3.org/2000/svg">
<g clip-path="url(#clip0_6364_5947)">
<path d="M33.6126 40.0045L23.9649 44.211V43.7865C22.1126 44.2496 20.0287 44.5197 18.0991 44.6355C8.99167 44.5583 1.81377 39.7729 1.698 34.1385V32.0546C4.6695 36.3769 10.7669 39.3098 18.0991 39.1941C20.5689 39.3098 23.1159 38.9239 25.2384 38.345L26.0874 36.2611C23.579 37.0329 20.8005 37.5346 18.0991 37.5346C8.99167 37.5346 1.81377 32.7878 1.698 27.0376V25.3396C4.6695 29.3532 10.7669 32.2475 18.0991 32.0546C21.4179 32.2475 24.621 31.5529 27.3609 30.3565L27.7854 28.2726C25.1227 29.6619 21.6881 30.4723 18.1377 30.3565C9.03026 30.4723 1.85236 25.7255 1.73659 19.8596V18.1615C4.70809 22.2523 10.8054 25.1852 18.1377 25.301C22.3055 25.1852 26.2418 24.0661 29.4834 22.368L29.9079 19.8596C26.975 22.0207 22.6914 23.4486 18.1377 23.6416C9.03026 23.4486 1.85236 18.6632 1.73659 12.7201C1.81377 7.04709 9.03026 2.30031 18.1377 2.22313C23.5404 2.30031 28.5958 4.19131 31.5673 7.27865L31.8761 7.78034H33.9986L33.6898 7.27865C30.7183 3.22651 24.7367 0.563678 18.1377 0.563678C8.0269 0.525086 0 6.04372 0 12.6815V13.106V34.5244C0.347318 41.0079 8.18126 46.2949 18.0605 46.2949C24.5824 46.3335 30.4868 43.7479 33.6126 40.0045Z" fill="#545456"/>
<path d="M29.6804 54.7848L33.0764 40.3515L23.3129 44.5966L29.2559 19.5891H17.833L20.8045 7.27832H57.2729L54.3014 19.5891H42.4154L39.8684 26.3813L53.0279 20.8626L29.6804 54.7848ZM35.6234 37.4185L33.9254 45.9087L47.9339 24.7218L36.4724 29.8159L41.5664 17.9296H53.0279L55.1504 9.01495H22.0394L19.9169 17.9296H31.3784L25.8599 41.6636L35.6234 37.4185Z" fill="#545456"/>
<path d="M81.4688 15.5758C81.5074 16.9265 81.0829 17.9684 80.2339 18.7403C79.3849 19.5121 78.2272 19.898 76.7222 19.898C75.2171 19.898 73.9822 19.3963 73.056 18.4315C72.1298 17.4667 71.6667 16.1932 71.6667 14.6495V12.1411C71.6667 10.5974 72.1298 9.32388 73.0174 8.35908C73.9436 7.39429 75.1399 6.8926 76.6064 6.8926C78.15 6.8926 79.3463 7.27851 80.2339 8.01176C81.1215 8.78359 81.546 9.82556 81.5074 11.1763V11.2149H79.0376C79.0376 10.4044 78.8447 9.78698 78.4587 9.40106C78.0728 9.01515 77.4554 8.82219 76.645 8.82219C75.8732 8.82219 75.2943 9.13092 74.8698 9.74839C74.4453 10.3659 74.2137 11.1377 74.2137 12.1025V14.6495C74.2137 15.6143 74.4453 16.4248 74.8698 17.0422C75.3329 17.6597 75.9503 17.9684 76.7607 17.9684C77.5326 17.9684 78.0728 17.7755 78.4587 17.3896C78.8447 17.0036 79.0376 16.3862 79.0376 15.5758H81.4688ZM95.4387 14.5338C95.4387 16.0774 94.937 17.3896 93.9723 18.3929C93.0075 19.3963 91.734 19.898 90.1518 19.898C88.5696 19.898 87.3346 19.3963 86.3313 18.3929C85.3665 17.3896 84.8648 16.0774 84.8648 14.5338V12.2569C84.8648 10.7132 85.3665 9.43965 86.3313 8.39768C87.296 7.39429 88.5695 6.854 90.1132 6.854C91.6954 6.854 92.9689 7.3557 93.9337 8.39768C94.937 9.40106 95.4001 10.7132 95.4001 12.2569V14.5338H95.4387ZM92.8917 12.2183C92.8917 11.2149 92.6602 10.443 92.1585 9.78698C91.6568 9.16951 91.0008 8.82219 90.1132 8.82219C89.2642 8.82219 88.5695 9.13092 88.1065 9.78698C87.6434 10.4045 87.3732 11.2149 87.3732 12.2183V14.4952C87.3732 15.4986 87.6048 16.309 88.1065 16.965C88.5695 17.5825 89.2642 17.9298 90.1132 17.9298C91.0008 17.9298 91.6568 17.6211 92.1585 16.965C92.6602 16.3476 92.8917 15.4986 92.8917 14.4952V12.2183ZM101.999 19.7051H99.4522V7.04696H101.999V19.7051ZM116.625 19.7051H114.078L108.984 11.1763H108.946V19.7051H106.399V7.04696H108.946L114.04 15.5758H114.078V7.04696H116.625V19.7051ZM129.399 9.01515H125.771V19.7051H123.224V9.01515H119.674V7.04696H129.399V9.01515ZM139.895 14.1479H135.187V17.7755H140.783V19.7051H132.679V7.04696H140.783V9.01515H135.226V12.1797H139.934V14.1479H139.895ZM146.958 17.7755H152.63V19.7051H144.411V7.04696H146.958V17.7755ZM163.436 14.1479H158.728V17.7755H164.323V19.7051H156.219V7.04696H164.323V9.01515H158.766V12.1797H163.474V14.1479H163.436ZM177.676 18.007C177.29 18.5087 176.711 18.9718 175.901 19.3577C175.129 19.7437 174.125 19.9366 172.891 19.9366C171.347 19.9366 170.112 19.4735 169.147 18.5087C168.183 17.5439 167.681 16.309 167.681 14.7653V12.1025C167.681 10.5588 168.144 9.32388 169.109 8.35908C170.035 7.39429 171.27 6.8926 172.736 6.8926C174.28 6.8926 175.476 7.27851 176.287 8.01176C177.097 8.745 177.521 9.7098 177.483 10.9447V10.9833H175.09C175.09 10.3273 174.897 9.78698 174.511 9.40106C174.125 9.01515 173.547 8.82219 172.813 8.82219C172.042 8.82219 171.424 9.13092 170.922 9.70979C170.459 10.3273 170.228 11.0991 170.228 12.0253V14.6881C170.228 15.6529 170.459 16.4248 170.961 17.0422C171.463 17.6597 172.119 17.9298 172.929 17.9298C173.547 17.9298 174.01 17.8527 174.357 17.7369C174.704 17.6211 174.975 17.4667 175.167 17.2738V14.8039H172.736V13.0287H177.714V18.007H177.676ZM184.236 14.6495V19.7051H181.689V7.04696H186.089C187.517 7.04696 188.674 7.39429 189.485 8.05035C190.295 8.70641 190.72 9.63261 190.72 10.7904C190.72 11.4464 190.565 11.9867 190.218 12.4884C189.871 12.9515 189.369 13.3374 188.713 13.6462C189.446 13.8777 189.986 14.225 190.334 14.7653C190.642 15.267 190.835 15.9231 190.835 16.6949V17.6211C190.835 17.9684 190.874 18.3544 190.99 18.7403C191.067 19.1262 191.26 19.3963 191.491 19.5893V19.7823H188.867C188.636 19.5893 188.481 19.2806 188.404 18.8561C188.327 18.4315 188.288 18.007 188.288 17.6211V16.7335C188.288 16.116 188.134 15.6143 187.787 15.267C187.439 14.9197 186.938 14.7267 186.32 14.7267H184.236V14.6495ZM184.236 12.7199H186.05C186.745 12.7199 187.285 12.5656 187.632 12.2569C187.98 11.9481 188.173 11.5236 188.173 10.9061C188.173 10.3273 187.98 9.86416 187.632 9.51683C187.285 9.16951 186.783 9.01515 186.089 9.01515H184.236V12.7199ZM201.486 17.0036H197.396L196.547 19.7437H193.884L198.168 7.08556H200.753L204.998 19.7437H202.335L201.486 17.0036ZM198.013 14.9969H200.869L199.48 10.5202H199.441L198.013 14.9969ZM210.632 15.1126V19.7051H208.085V7.04696H212.948C214.414 7.04696 215.533 7.43288 216.382 8.16612C217.231 8.89937 217.617 9.90276 217.617 11.0991C217.617 12.2954 217.193 13.2988 216.382 14.0321C215.533 14.7653 214.414 15.1512 212.948 15.1512H210.632V15.1126ZM210.632 13.1831H212.948C213.643 13.1831 214.183 12.9901 214.569 12.6042C214.916 12.2183 215.109 11.7166 215.109 11.1377C215.109 10.5202 214.916 10.0185 214.569 9.63261C214.221 9.24669 213.681 9.05373 212.948 9.05373H210.632V13.1831ZM231.549 19.7051H229.002V14.4566H223.831V19.7051H221.284V7.04696H223.831V12.4884H229.002V7.04696H231.549V19.7051Z" fill="#545456"/>
<path d="M76.2979 40.3905H74.7157V32.0546H71.86V30.7039H79.1537V32.0546H76.2979V40.3905ZM86.9104 40.3905H85.3282V35.8752C85.3282 35.2963 85.2124 34.8718 84.9809 34.6017C84.7493 34.3316 84.402 34.1772 83.9003 34.1772C83.2443 34.1772 82.7812 34.3701 82.4725 34.7561C82.1637 35.142 82.0094 35.798 82.0094 36.7242V40.3519H80.4657V30.0479H82.0094V32.6721C82.0094 33.0966 81.9708 33.5211 81.9322 34.0228H82.048C82.2409 33.6755 82.5497 33.4054 82.9356 33.2124C83.3215 33.0194 83.746 32.9037 84.2477 32.9037C86.0228 32.9037 86.9104 33.7913 86.9104 35.6051V40.3905ZM92.2746 40.5062C91.1168 40.5062 90.2292 40.1589 89.6118 39.5029C88.9557 38.8468 88.647 37.9206 88.647 36.7628C88.647 35.5665 88.9557 34.6403 89.5346 33.9456C90.1135 33.251 90.9625 32.9037 92.0044 32.9037C92.9692 32.9037 93.741 33.2124 94.2813 33.7913C94.8601 34.3701 95.1303 35.1806 95.1303 36.2226V37.0716H90.2292C90.2678 37.7662 90.4608 38.3451 90.8081 38.6924C91.1554 39.0783 91.6957 39.2713 92.3517 39.2713C92.7762 39.2713 93.2007 39.2327 93.5481 39.1555C93.934 39.0783 94.3199 38.924 94.7444 38.731V40.0045C94.3585 40.1975 93.9726 40.3133 93.5866 40.3905C93.2393 40.4677 92.7762 40.5062 92.2746 40.5062ZM92.0044 34.1C91.5027 34.1 91.1168 34.2544 90.8081 34.5631C90.4994 34.8718 90.345 35.3349 90.2678 35.9524H93.5866C93.5866 35.3349 93.4323 34.8718 93.1621 34.5631C92.892 34.2544 92.5061 34.1 92.0044 34.1ZM104.083 34.2158H102.308V40.3905H100.726V34.2158H99.5296V33.4825L100.726 33.0194V32.5563C100.726 31.7073 100.919 31.0513 101.343 30.6267C101.768 30.2022 102.385 30.0093 103.196 30.0093C103.736 30.0093 104.276 30.0865 104.817 30.2794L104.392 31.4758C104.006 31.36 103.659 31.2828 103.273 31.2828C102.926 31.2828 102.655 31.3986 102.501 31.5915C102.347 31.8231 102.27 32.1318 102.27 32.5563V33.0194H104.045V34.2158H104.083ZM110.528 40.3905L110.296 39.4257H110.219C109.988 39.773 109.679 40.0431 109.293 40.2361C108.907 40.4291 108.444 40.5448 107.942 40.5448C107.055 40.5448 106.399 40.3133 105.936 39.8888C105.473 39.4643 105.28 38.7696 105.28 37.882V33.058H106.862V37.5733C106.862 38.1521 106.978 38.5381 107.209 38.8468C107.441 39.1169 107.788 39.2713 108.29 39.2713C108.946 39.2713 109.409 39.0783 109.718 38.6924C110.026 38.3065 110.181 37.6505 110.181 36.7242V33.058H111.763V40.3905H110.528ZM116.703 39.2327C117.088 39.2327 117.474 39.1555 117.86 39.0398V40.1975C117.706 40.2747 117.474 40.3519 117.204 40.3905C116.934 40.4291 116.664 40.4677 116.355 40.4677C114.889 40.4677 114.156 39.6958 114.156 38.1521V34.2158H113.152V33.5211L114.233 32.9423L114.773 31.3986H115.738V33.0194H117.822V34.2158H115.738V38.1521C115.738 38.5381 115.815 38.8082 116.008 39.0012C116.124 39.1555 116.394 39.2327 116.703 39.2327ZM124.459 40.3905L124.228 39.4257H124.151C123.919 39.773 123.61 40.0431 123.224 40.2361C122.839 40.4291 122.375 40.5448 121.874 40.5448C120.986 40.5448 120.33 40.3133 119.867 39.8888C119.443 39.4643 119.211 38.7696 119.211 37.882V33.058H120.793V37.5733C120.793 38.1521 120.909 38.5381 121.141 38.8468C121.372 39.1169 121.719 39.2713 122.221 39.2713C122.877 39.2713 123.34 39.0783 123.649 38.6924C123.958 38.3065 124.112 37.6505 124.112 36.7242V33.058H125.694V40.3905H124.459ZM131.637 32.9037C131.946 32.9037 132.216 32.9422 132.409 32.9808L132.255 34.4473C132.023 34.4087 131.792 34.3701 131.56 34.3701C130.943 34.3701 130.441 34.5631 130.055 34.9876C129.669 35.4121 129.476 35.9138 129.476 36.5699V40.3905H127.933V33.058H129.167L129.36 34.3316H129.438C129.669 33.907 130.016 33.5597 130.402 33.2896C130.75 33.058 131.174 32.9037 131.637 32.9037ZM136.693 40.5062C135.535 40.5062 134.647 40.1589 134.03 39.5029C133.374 38.8468 133.065 37.9206 133.065 36.7628C133.065 35.5665 133.374 34.6403 133.953 33.9456C134.532 33.251 135.381 32.9037 136.423 32.9037C137.387 32.9037 138.159 33.2124 138.699 33.7913C139.278 34.3701 139.548 35.1806 139.548 36.2226V37.0716H134.647C134.686 37.7662 134.879 38.3451 135.226 38.6924C135.574 39.0783 136.114 39.2713 136.77 39.2713C137.194 39.2713 137.619 39.2327 137.966 39.1555C138.352 39.0783 138.738 38.924 139.162 38.731V40.0045C138.777 40.1975 138.391 40.3133 138.005 40.3905C137.619 40.4677 137.194 40.5062 136.693 40.5062ZM136.423 34.1C135.921 34.1 135.535 34.2544 135.226 34.5631C134.917 34.8718 134.763 35.3349 134.686 35.9524H138.005C138.005 35.3349 137.85 34.8718 137.58 34.5631C137.272 34.2544 136.886 34.1 136.423 34.1ZM151.319 36.6857C151.319 37.882 151.01 38.8082 150.392 39.5029C149.775 40.1589 148.926 40.5062 147.845 40.5062C147.151 40.5062 146.572 40.3519 146.032 40.0431C145.491 39.7344 145.105 39.2713 144.835 38.6924C144.565 38.1136 144.411 37.4575 144.411 36.6857C144.411 35.4893 144.72 34.5631 145.337 33.9071C145.954 33.251 146.803 32.9037 147.923 32.9037C148.965 32.9037 149.814 33.251 150.431 33.9456C151.048 34.6403 151.319 35.5279 151.319 36.6857ZM145.993 36.6857C145.993 38.3837 146.61 39.2327 147.884 39.2327C149.119 39.2327 149.736 38.3837 149.736 36.6857C149.736 35.0262 149.119 34.1772 147.884 34.1772C147.228 34.1772 146.765 34.4087 146.456 34.8333C146.147 35.2578 145.993 35.8752 145.993 36.6857ZM156.798 34.2158H155.023V40.3905H153.441V34.2158H152.245V33.4825L153.441 33.0194V32.5563C153.441 31.7073 153.634 31.0513 154.059 30.6267C154.483 30.2022 155.1 30.0093 155.911 30.0093C156.451 30.0093 156.991 30.0865 157.532 30.2794L157.107 31.4758C156.721 31.36 156.374 31.2828 155.988 31.2828C155.641 31.2828 155.371 31.3986 155.216 31.5915C155.062 31.7845 154.985 32.1318 154.985 32.5563V33.0194H156.76V34.2158H156.798ZM167.758 40.3905H166.176V35.8752C166.176 35.2963 166.06 34.9104 165.867 34.6017C165.674 34.3316 165.327 34.1772 164.864 34.1772C164.247 34.1772 163.822 34.3701 163.552 34.7561C163.282 35.142 163.127 35.798 163.127 36.7242V40.3905H161.584V33.058H162.819L163.05 34.0228H163.127C163.32 33.6755 163.629 33.4054 164.015 33.2124C164.401 33.0194 164.825 32.9423 165.288 32.9423C166.408 32.9423 167.179 33.3282 167.527 34.1H167.643C167.874 33.7527 168.183 33.4439 168.569 33.251C168.955 33.058 169.418 32.9423 169.919 32.9423C170.807 32.9423 171.424 33.1738 171.849 33.5983C172.235 34.0228 172.466 34.7175 172.466 35.6051V40.3905H170.923V35.8752C170.923 35.2963 170.807 34.9104 170.614 34.6017C170.382 34.3316 170.074 34.1772 169.611 34.1772C168.993 34.1772 168.569 34.3701 168.299 34.7561C168.028 35.142 167.874 35.7209 167.874 36.4927V40.3905H167.758ZM181.034 36.6857C181.034 37.882 180.725 38.8082 180.107 39.5029C179.49 40.1589 178.641 40.5062 177.56 40.5062C176.866 40.5062 176.287 40.3519 175.747 40.0431C175.206 39.7344 174.82 39.2713 174.55 38.6924C174.28 38.1136 174.126 37.4575 174.126 36.6857C174.126 35.4893 174.435 34.5631 175.052 33.9071C175.669 33.251 176.518 32.9037 177.638 32.9037C178.679 32.9037 179.528 33.251 180.146 33.9456C180.725 34.6403 181.034 35.5279 181.034 36.6857ZM175.708 36.6857C175.708 38.3837 176.325 39.2327 177.599 39.2327C178.834 39.2327 179.451 38.3837 179.451 36.6857C179.451 35.0262 178.834 34.1772 177.599 34.1772C176.943 34.1772 176.48 34.4087 176.171 34.8333C175.862 35.2578 175.708 35.8752 175.708 36.6857ZM189.292 40.3905H187.71V35.8752C187.71 35.2963 187.594 34.8718 187.362 34.6017C187.131 34.3316 186.784 34.1772 186.282 34.1772C185.626 34.1772 185.124 34.3701 184.854 34.7561C184.584 35.142 184.391 35.798 184.391 36.7242V40.3905H182.847V33.058H184.082L184.314 34.0228H184.391C184.622 33.6755 184.931 33.4054 185.317 33.2124C185.703 33.0194 186.166 32.9423 186.668 32.9423C188.443 32.9423 189.292 33.8299 189.292 35.6437V40.3905ZM194.656 40.5062C193.498 40.5062 192.611 40.1589 191.993 39.5029C191.337 38.8468 191.029 37.9206 191.029 36.7628C191.029 35.5665 191.337 34.6403 191.916 33.9456C192.495 33.251 193.344 32.9037 194.386 32.9037C195.351 32.9037 196.123 33.2124 196.663 33.7913C197.242 34.3701 197.512 35.1806 197.512 36.2226V37.0716H192.611C192.649 37.7662 192.842 38.3451 193.19 38.6924C193.537 39.0783 194.077 39.2713 194.733 39.2713C195.158 39.2713 195.582 39.2327 195.93 39.1555C196.277 39.0783 196.701 38.924 197.126 38.731V40.0045C196.74 40.1975 196.354 40.3133 195.968 40.3905C195.582 40.4677 195.158 40.5062 194.656 40.5062ZM194.347 34.1C193.846 34.1 193.46 34.2544 193.151 34.5631C192.842 34.8718 192.688 35.3349 192.611 35.9524H195.93C195.93 35.3349 195.775 34.8718 195.505 34.5631C195.235 34.2544 194.849 34.1 194.347 34.1ZM197.898 33.058H199.596L201.101 37.2259C201.332 37.8048 201.487 38.3837 201.564 38.8854H201.602C201.641 38.6538 201.718 38.3451 201.834 37.9978C201.95 37.6504 202.49 35.991 203.532 33.058H205.23L202.104 41.3553C201.525 42.8603 200.599 43.6322 199.248 43.6322C198.901 43.6322 198.554 43.5936 198.245 43.5164V42.2815C198.477 42.3201 198.747 42.3587 199.055 42.3587C199.789 42.3587 200.329 41.9341 200.638 41.0465L200.908 40.3519L197.898 33.058Z" fill="#545456"/>
</g>
<defs>
<clipPath id="clip0_6364_5947">
<rect width="232" height="54.2212" fill="white" transform="translate(0 0.563477)"/>
</clipPath>
</defs>
</svg>
