<?xml version="1.0" encoding="UTF-8"?>
<svg width="460px" height="93px" viewBox="0 0 460 93" version="1.1" xmlns="http://www.w3.org/2000/svg" xmlns:xlink="http://www.w3.org/1999/xlink">
    <title>DOB Protocol Dark Logo</title>
    <defs>
        <linearGradient x1="0%" y1="50%" x2="100%" y2="50%" id="linearGradient-1">
            <stop stop-color="#A5A4FF" offset="0%"></stop>
            <stop stop-color="#7C8AFF" offset="100%"></stop>
        </linearGradient>
    </defs>
    <g id="DOB-Protocol-Dark" stroke="none" stroke-width="1" fill="none" fill-rule="evenodd">
        <g id="Logo-Dark" fill-rule="nonzero">
            <path d="M128.512,29.496 C141.232,29.496 149.12,36.952 149.12,49.672 C149.12,62.392 141.232,69.848 128.512,69.848 L110.192,69.848 L110.192,29.496 L128.512,29.496 Z M128.032,61.176 C135.232,61.176 139.072,57.16 139.072,49.672 C139.072,42.184 135.232,38.168 128.032,38.168 L120,38.168 L120,61.176 L128.032,61.176 Z" id="Shape" fill="#FFFFFF"></path>
            <path d="M172.448,29.496 C185.168,29.496 193.056,36.952 193.056,49.672 C193.056,62.392 185.168,69.848 172.448,69.848 L154.128,69.848 L154.128,29.496 L172.448,29.496 Z M171.968,61.176 C179.168,61.176 183.008,57.16 183.008,49.672 C183.008,42.184 179.168,38.168 171.968,38.168 L163.936,38.168 L163.936,61.176 L171.968,61.176 Z" id="Shape" fill="#FFFFFF"></path>
            <path d="M216.288,29.496 C225.264,29.496 231.12,34.84 231.12,43.576 C231.12,51.752 226.08,57.128 218.688,57.608 L232.768,69.848 L220.976,69.848 L208.016,57.896 L208.016,69.848 L198.208,69.848 L198.208,29.496 L216.288,29.496 Z M215.76,50.104 C221.36,50.104 224.256,47.592 224.256,43.576 C224.256,39.608 221.36,37.096 215.76,37.096 L208.016,37.096 L208.016,50.104 L215.76,50.104 Z" id="Shape" fill="#FFFFFF"></path>
            <path d="M247.696,49.672 C247.696,36.952 255.584,29.448 268.304,29.448 C281.024,29.448 288.912,36.952 288.912,49.672 C288.912,62.392 281.024,69.896 268.304,69.896 C255.584,69.896 247.696,62.392 247.696,49.672 Z M278.864,49.672 C278.864,42.184 275.024,38.168 268.304,38.168 C261.584,38.168 257.744,42.184 257.744,49.672 C257.744,57.16 261.584,61.176 268.304,61.176 C275.024,61.176 278.864,57.16 278.864,49.672 Z" id="Shape" fill="#FFFFFF"></path>
            <path d="M324.128,29.496 L324.128,37.576 L303.52,37.576 L303.52,45.368 L322.192,45.368 L322.192,53.256 L303.52,53.256 L303.52,61.768 L324.848,61.768 L324.848,69.848 L293.712,69.848 L293.712,29.496 L324.128,29.496 Z" id="Path" fill="#FFFFFF"></path>
            <path d="M351.472,38.072 L338.56,38.072 L338.56,29.496 L374.192,29.496 L374.192,38.072 L361.28,38.072 L361.28,69.848 L351.472,69.848 L351.472,38.072 Z" id="Path" fill="#FFFFFF"></path>
            <path d="M402.464,29.496 C411.44,29.496 417.296,34.84 417.296,43.576 C417.296,51.752 412.256,57.128 404.864,57.608 L418.944,69.848 L407.152,69.848 L394.192,57.896 L394.192,69.848 L384.384,69.848 L384.384,29.496 L402.464,29.496 Z M401.936,50.104 C407.536,50.104 410.432,47.592 410.432,43.576 C410.432,39.608 407.536,37.096 401.936,37.096 L394.192,37.096 L394.192,50.104 L401.936,50.104 Z" id="Shape" fill="#FFFFFF"></path>
            <path d="M444.64,29.496 C453.616,29.496 459.472,34.84 459.472,43.576 C459.472,51.752 454.432,57.128 447.04,57.608 L461.12,69.848 L449.328,69.848 L436.368,57.896 L436.368,69.848 L426.56,69.848 L426.56,29.496 L444.64,29.496 Z M444.112,50.104 C449.712,50.104 452.608,47.592 452.608,43.576 C452.608,39.608 449.712,37.096 444.112,37.096 L436.368,37.096 L436.368,50.104 L444.112,50.104 Z" id="Shape" fill="#FFFFFF"></path>
            <path d="M35.352,21.784 C17.352,30.432 6.728,48.656 6.728,68.808 C6.728,68.856 6.728,68.904 6.728,68.96 L27.08,68.96 C27.08,68.904 27.08,68.856 27.08,68.808 C27.08,57.016 33.384,46.328 44.48,41.064 C44.584,41.008 44.688,40.96 44.792,40.904 L35.352,21.784 Z" id="Path" fill="url(#linearGradient-1)"></path>
            <path d="M89.944,68.96 C89.944,68.904 89.944,68.856 89.944,68.808 C89.944,48.656 79.32,30.432 61.32,21.784 L51.88,40.904 C51.984,40.96 52.088,41.008 52.192,41.064 C63.288,46.328 69.592,57.016 69.592,68.808 C69.592,68.856 69.592,68.904 69.592,68.96 L89.944,68.96 Z" id="Path" fill="url(#linearGradient-1)"></path>
        </g>
    </g>
</svg> 