<svg width="78" height="21" viewBox="0 0 78 21" fill="none" xmlns="http://www.w3.org/2000/svg">
<g clip-path="url(#clip0_6381_2637)">
<path d="M24.2114 18.9498V2.57602H29.5671C31.3431 2.57602 32.6805 2.94411 33.5762 3.68028C34.4719 4.4134 34.9197 5.50233 34.9197 6.94707C34.9197 7.71086 34.705 8.39182 34.2664 8.9777C33.8339 9.56971 33.2419 10.0268 32.4904 10.3488C33.3768 10.5942 34.0762 11.0666 34.5915 11.7568C35.1069 12.4531 35.3584 13.2782 35.3584 14.2322C35.3584 15.7015 34.8829 16.8548 33.929 17.6922C32.9781 18.5327 31.6346 18.9498 29.8953 18.9498H24.2114ZM26.3739 11.3273V17.1769H29.9352C30.9413 17.1769 31.7358 16.9192 32.3155 16.4008C32.8953 15.8824 33.1867 15.1677 33.1867 14.2628C33.1867 12.3058 32.1161 11.3273 29.9689 11.3273H26.3739ZM26.3739 9.55437H29.6315C30.5763 9.55437 31.3309 9.31511 31.9014 8.84273C32.4658 8.37035 32.7511 7.73233 32.7511 6.92253C32.7511 6.02072 32.4873 5.36736 31.9628 4.95939C31.4382 4.54836 30.6376 4.34591 29.5671 4.34591H26.3739V9.55437ZM47.5881 14.6677H40.7233L39.1834 18.9529H36.9565L43.2109 2.57602H45.1005L51.3641 18.9529H49.1494L47.5881 14.6677ZM41.3797 12.8948H46.9501L44.1588 5.2416L41.3797 12.8948ZM58.3946 11.6525C56.545 11.1187 55.1984 10.4623 54.3518 9.68627C53.5082 8.91021 53.0849 7.95012 53.0849 6.81211C53.0849 5.5238 53.6033 4.45634 54.6309 3.60973C55.6646 2.7662 57.002 2.3429 58.6492 2.3429C59.7749 2.3429 60.7811 2.56068 61.6583 2.99625C62.5417 3.42876 63.2196 4.02997 63.7043 4.79682C64.1889 5.56061 64.4313 6.39801 64.4313 7.30289H62.2626C62.2626 6.31212 61.9467 5.533 61.3179 4.96553C60.689 4.40113 59.7964 4.11586 58.6492 4.11586C57.5848 4.11586 56.7566 4.34898 56.1615 4.81829C55.5634 5.29067 55.2659 5.9379 55.2659 6.77223C55.2659 7.44093 55.545 8.0084 56.1155 8.46851C56.6799 8.92862 57.6431 9.35192 59.005 9.73535C60.3639 10.1188 61.4313 10.5421 62.1982 11.0022C62.965 11.4623 63.5356 11.9991 63.9067 12.6187C64.2779 13.2322 64.4619 13.9592 64.4619 14.7904C64.4619 16.1186 63.9435 17.183 62.9098 17.9805C61.873 18.7781 60.4927 19.1768 58.7596 19.1768C57.6339 19.1768 56.5818 18.9621 55.6094 18.5327C54.637 18.1002 53.8855 17.5082 53.3549 16.7597C52.8242 16.0113 52.5635 15.1585 52.5635 14.2076H54.7321C54.7321 15.1953 55.0971 15.9745 55.8303 16.545C56.5603 17.1155 57.5357 17.4039 58.7596 17.4039C59.9007 17.4039 60.7719 17.1707 61.3792 16.7045C61.9896 16.2413 62.2933 15.6064 62.2933 14.8088C62.2933 14.0052 62.008 13.3856 61.4497 12.9469C60.8945 12.5144 59.8731 12.0788 58.3946 11.6525ZM76.4954 11.3948H69.4005V17.1769H77.6426V18.9498H67.241V2.57602H77.5322V4.34898H69.4005V9.62185H76.4954V11.3948Z" fill="#545456"/>
<path d="M10.721 20.5633C16.1319 20.5633 20.5214 16.1769 20.5214 10.7629C20.5214 5.35198 16.135 0.962524 10.721 0.962524C5.58921 0.962524 1.3746 4.91335 0.957428 9.93776H13.908V11.585H0.957428C1.3746 16.6124 5.58921 20.5633 10.721 20.5633Z" fill="#545456"/>
</g>
<defs>
<clipPath id="clip0_6381_2637">
<rect width="76.6852" height="19.6007" fill="white" transform="translate(0.957428 0.962524)"/>
</clipPath>
</defs>
</svg>
