<svg width="19" height="19" viewBox="0 0 19 19" fill="none" xmlns="http://www.w3.org/2000/svg">
<g clip-path="url(#clip0_6452_1191)">
<path fill-rule="evenodd" clip-rule="evenodd" d="M18.5 18.4092H14.9V12.1101C14.9 10.3821 14.1377 9.41797 12.7706 9.41797C11.2829 9.41797 10.4 10.4226 10.4 12.1101V18.4092H6.8V6.70918H10.4V8.0249C10.4 8.0249 11.5295 6.04297 14.0747 6.04297C16.6208 6.04297 18.5 7.59667 18.5 10.8115V18.4092ZM2.6978 4.83799C1.4837 4.83799 0.5 3.84624 0.5 2.62314C0.5 1.40094 1.4837 0.40918 2.6978 0.40918C3.911 0.40918 4.8947 1.40094 4.8947 2.62314C4.8956 3.84624 3.911 4.83799 2.6978 4.83799ZM0.5 18.4092H5V6.70918H0.5V18.4092Z" fill="#597CE9"/>
</g>
<defs>
<clipPath id="clip0_6452_1191">
<rect width="18" height="18" fill="white" transform="translate(0.5 0.40918)"/>
</clipPath>
</defs>
</svg>
