<svg width="25" height="25" viewBox="0 0 25 25" fill="none" xmlns="http://www.w3.org/2000/svg">
<path fill-rule="evenodd" clip-rule="evenodd" d="M20.277 4.83914C20.5241 4.73514 20.7946 4.69926 21.0603 4.73526C21.326 4.77126 21.5772 4.87781 21.7877 5.04383C21.9982 5.20985 22.1604 5.42926 22.2574 5.67923C22.3543 5.9292 22.3825 6.20059 22.339 6.46515L20.071 20.2221C19.851 21.5491 18.395 22.3101 17.178 21.6491C16.16 21.0961 14.648 20.2441 13.288 19.3551C12.608 18.9101 10.525 17.4851 10.781 16.4711C11.001 15.6041 14.501 12.3461 16.501 10.4091C17.286 9.64814 16.928 9.20915 16.001 9.90914C13.699 11.6471 10.003 14.2901 8.78102 15.0341C7.70302 15.6901 7.14102 15.8021 6.46902 15.6901C5.24302 15.4861 4.10602 15.1701 3.17802 14.7851C1.92402 14.2651 1.98502 12.5411 3.17702 12.0391L20.277 4.83914Z" fill="#597CE9"/>
</svg>
