<svg width="24" height="24" viewBox="0 0 24 24" fill="none" xmlns="http://www.w3.org/2000/svg">
  <path d="M22 4.01C21 4.5 20.02 4.69 19 4.82C20.07 4.19 20.85 3.13 21.23 1.88C20.24 2.49 19.11 2.97 17.92 3.21C16.97 2.16 15.56 1.5 14 1.5C10.97 1.5 8.5 3.97 8.5 7C8.5 7.39 8.55 7.77 8.64 8.13C4.76 7.92 1.3 5.73 -0.01 2.54C-0.44 3.28 -0.67 4.13 -0.67 5.04C-0.67 6.77 0.24 8.29 1.62 9.15C0.83 9.13 0.09 8.89 -0.58 8.49V8.54C-0.58 11.21 1.31 13.43 3.82 13.88C3.4 13.99 2.96 14.05 2.5 14.05C2.18 14.05 1.87 14.02 1.57 13.95C2.19 16.13 4.22 17.72 6.62 17.76C4.73 19.24 2.38 20.13 -0.17 20.13C-0.58 20.13 -0.98 20.11 -1.38 20.06C1.06 21.63 3.93 22.55 7.03 22.55C14 22.55 17.83 16.13 17.83 10.5L17.81 9.79C18.82 9.08 19.69 8.17 20.37 7.13C19.41 7.54 18.38 7.82 17.31 7.94" stroke="#4F46E5" stroke-width="1.5" stroke-linecap="round" stroke-linejoin="round"/>
</svg> 