<svg width="80" height="81" viewBox="0 0 80 81" fill="none" xmlns="http://www.w3.org/2000/svg">
<circle cx="40" cy="40.5635" r="40" fill="#9A99FF"/>
<path d="M57.4002 19.3154C53.6557 19.5689 53.4996 19.5943 53.2656 19.8984C52.739 20.5321 52.8561 20.8616 54.3773 22.864L55.7424 24.6636L47.4538 35.4612L39.1652 46.2334L34.1141 39.6687C31.3252 36.0441 28.9069 33.0279 28.7509 32.9519C28.3023 32.7491 27.8537 32.7744 27.4052 33.0786C27.1907 33.2307 24.8113 36.2216 22.12 39.7194C16.7373 46.7403 16.8153 46.6136 17.1078 47.8809C17.3028 48.7427 18.239 49.8833 18.824 50.0354C19.7407 50.2382 19.7992 50.1875 24.1482 44.5352L28.2048 39.2885L33.1584 45.7772C35.8888 49.3257 38.2681 52.3419 38.4241 52.4433C38.7752 52.6714 39.6138 52.7221 39.9453 52.494C40.0819 52.418 44.3334 46.9431 49.4041 40.3784L58.6288 28.4148L60.0135 30.1891C61.1642 31.6592 61.4567 31.9633 61.7297 31.9633C62.0808 31.938 62.3343 31.7606 62.5098 31.279C62.6464 30.9241 62.6659 30.5439 62.8999 24.3087C63.0754 19.6956 63.0559 19.4675 62.5488 19.1634C62.2368 19.0113 62.3148 19.0113 57.4002 19.3154Z" fill="#E8ECFA"/>
<path d="M51.7602 61.8471L51.7564 61.8397L51.7524 61.8324L51.5618 61.4895V51.9621V42.4751L55.0457 37.9472L55.0465 37.9462L57.7623 34.4357L57.7972 46.9181C57.7972 46.9183 57.7972 46.9186 57.7972 46.9188C57.7972 50.7587 57.7972 54.3001 57.7924 56.9132C57.7899 58.2199 57.7863 59.2937 57.7808 60.0563C57.778 60.4378 57.7749 60.74 57.7712 60.9542C57.7693 61.0615 57.7674 61.1447 57.7654 61.204C57.7636 61.2555 57.7622 61.2743 57.7625 61.2743C57.7625 61.2743 57.7628 61.2723 57.7634 61.2687L57.763 61.271C57.737 61.4575 57.6362 61.7118 57.4803 61.9522C57.3206 62.1985 57.1503 62.3577 57.0369 62.4154L57.0214 62.4233L57.0073 62.4317C57.0072 62.4315 56.9752 62.4477 56.8808 62.467C56.7817 62.4872 56.6403 62.5058 56.4409 62.5209C56.042 62.551 55.4587 62.5638 54.6112 62.5638C53.967 62.5638 53.481 62.559 53.1032 62.5384C52.7218 62.5177 52.4814 62.4821 52.3171 62.4328C52.1674 62.3879 52.0896 62.3344 52.0267 62.2687C51.9508 62.1895 51.8745 62.07 51.7602 61.8471Z" fill="#E8ECFA" stroke="#E8ECFA"/>
<path d="M24.656 47.9281C22.6667 50.4881 21.2235 52.2624 20.9895 52.3638L20.6384 52.5412L20.6774 56.9768C20.7164 61.1336 20.7164 61.4378 20.931 61.894C21.048 62.1729 21.282 62.5024 21.4575 62.6798C21.7501 62.9586 21.8866 62.9839 24.3439 62.9839C27.2888 62.9839 27.3278 62.9586 27.7764 61.7673L28.0104 61.1336L27.9909 52.3891L27.9519 43.6699L24.656 47.9281Z" fill="#E8ECFA"/>
<path d="M44.6179 49.7512C42.9991 51.8549 41.4974 53.7306 41.2244 53.9334L40.7563 54.3136L40.7954 57.5833C40.8344 60.6248 40.8344 60.853 41.0489 61.2331C41.595 62.1963 41.6145 62.1963 44.3253 62.247C47.0752 62.2977 47.2897 62.2217 47.7968 61.2838L48.0308 60.8276V53.8066C48.0308 47.7995 48.0113 46.735 47.8748 46.3801C47.7773 46.152 47.6603 45.9492 47.6213 45.9492C47.5823 45.9492 46.2171 47.6728 44.6179 49.7512Z" fill="#E8ECFA"/>
<path d="M30.8962 47.4721C30.8572 47.6495 30.8377 50.8685 30.8377 54.6198C30.8377 62.2998 30.8182 62.1224 31.6568 62.7307C32.0663 63.0348 32.2029 63.0602 34.4457 63.0602C36.6495 63.0602 36.8445 63.0348 37.215 62.756C37.4491 62.5786 37.7221 62.2237 37.8586 61.9196C38.0731 61.438 38.0926 61.1845 38.0926 58.3964V55.3802L37.5661 55.1014C37.1565 54.8986 36.4739 54.0875 34.0751 50.9699C32.4369 48.8661 31.0717 47.1426 31.0327 47.1426C30.9937 47.1679 30.9352 47.2947 30.8962 47.4721Z" fill="#E8ECFA"/>
</svg>
