<svg width="80" height="81" viewBox="0 0 80 81" fill="none" xmlns="http://www.w3.org/2000/svg">
<circle cx="40" cy="40.5635" r="40" fill="#9A99FF"/>
<path d="M62.758 19.6605C62.7393 19.5736 62.695 19.4936 62.6305 19.4298C62.5659 19.3661 62.4837 19.3213 62.3935 19.3007C56.3795 17.893 42.4838 22.9095 34.9553 30.1142C33.6125 31.3894 32.3884 32.7742 31.2968 34.2529C28.9752 34.0563 26.6536 34.2204 24.675 35.0462C19.0923 37.3986 17.4668 43.5368 17.014 46.1772C16.9883 46.3218 16.998 46.47 17.0423 46.6103C17.0866 46.7507 17.1643 46.8793 17.2693 46.986C17.3743 47.0927 17.5037 47.1746 17.6474 47.2253C17.7911 47.276 17.9451 47.2942 18.0973 47.2782L27.0623 46.3316C27.0687 46.9787 27.1095 47.625 27.1845 48.2682C27.2296 48.7148 27.4367 49.1322 27.7698 49.4478L31.2414 52.7636C31.5714 53.0821 32.0072 53.2803 32.4735 53.324C33.1415 53.3955 33.8129 53.4346 34.485 53.441L33.5014 62.0131C33.485 62.1588 33.504 62.3062 33.5571 62.4436C33.6101 62.5811 33.6957 62.7049 33.8071 62.8054C33.9185 62.9058 34.0527 62.9802 34.1992 63.0227C34.3457 63.0652 34.5005 63.0746 34.6514 63.0503C37.4042 62.6275 43.8269 61.0714 46.2696 55.7266C47.1322 53.8322 47.3088 51.6204 47.1096 49.4085C48.6578 48.3634 50.108 47.1911 51.4437 45.9049C58.9958 38.711 64.2058 25.7043 62.758 19.6605ZM43.909 37.3229C43.2194 36.6631 42.7497 35.8224 42.5593 34.907C42.3688 33.9915 42.4662 33.0426 42.8392 32.1802C43.2121 31.3178 43.8438 30.5807 44.6544 30.0621C45.465 29.5435 46.418 29.2666 47.393 29.2666C48.3679 29.2666 49.3209 29.5435 50.1315 30.0621C50.9421 30.5807 51.5738 31.3178 51.9467 32.1802C52.3197 33.0426 52.4171 33.9915 52.2267 34.907C52.0362 35.8224 51.5665 36.6631 50.8769 37.3229C50.4196 37.7614 49.8765 38.1092 49.2787 38.3465C48.6809 38.5838 48.0401 38.7059 47.393 38.7059C46.7458 38.7059 46.105 38.5838 45.5072 38.3465C44.9094 38.1092 44.3663 37.7614 43.909 37.3229Z" fill="#E8ECFA"/>
<path d="M31.0139 55.1736L31.014 55.1734C31.3021 54.8852 31.8113 55.124 31.7745 55.5237C31.6106 56.8294 30.9923 58.0444 30.0191 58.9729L30.0191 58.9729C29.4177 59.5491 28.4068 59.9958 27.2267 60.3415C26.0471 60.687 24.7002 60.931 23.4283 61.1028C22.1565 61.2746 20.9601 61.3742 20.0816 61.4308C19.6424 61.4591 19.2826 61.4766 19.0327 61.4871C18.9078 61.4923 18.8103 61.4958 18.744 61.498L18.6685 61.5003L18.6551 61.5007L18.6555 61.4884L18.6579 61.4162C18.6602 61.3528 18.6638 61.2595 18.6693 61.1399C18.6802 60.9008 18.6986 60.5566 18.7281 60.1363C18.7872 59.2957 18.8911 58.1508 19.0704 56.9338C19.2497 55.7167 19.5044 54.4276 19.865 53.2985C20.2257 52.1691 20.6918 51.2013 21.2931 50.6251C22.2638 49.6962 23.5312 49.1049 24.8935 48.9453L24.8935 48.9453L24.8937 48.9452C24.9848 48.9334 25.0775 48.9493 25.1586 48.9906C25.2397 49.032 25.305 49.0968 25.3453 49.1756C25.3856 49.2544 25.399 49.3434 25.3835 49.4298C25.368 49.5163 25.3245 49.5959 25.2589 49.6574L25.2589 49.6575C25.1804 49.7326 25.091 49.8678 24.9986 50.0411C24.906 50.2148 24.8098 50.4277 24.7181 50.6593C24.5348 51.1225 24.369 51.661 24.2851 52.1097L24.2851 52.1097C23.845 54.4809 26.0083 56.506 28.456 56.1067L28.4561 56.1067C29.5419 55.9269 30.4482 55.7162 31.0139 55.1736Z" fill="#E8ECFA" stroke="#E8ECFA" stroke-width="0.0234375"/>
</svg>
