<svg width="80" height="81" viewBox="0 0 80 81" fill="none" xmlns="http://www.w3.org/2000/svg">
<circle cx="40" cy="40.5635" r="40" fill="#9A99FF"/>
<path d="M47.2771 37.1755C47.403 38.3545 47.475 39.4956 47.475 40.5635C47.475 42.5626 47.2224 44.8199 46.8361 47.1024C44.4499 47.4718 42.09 47.7135 40 47.7135C37.9195 47.7135 35.5602 47.4726 33.1638 47.1016C32.7776 44.8194 32.525 42.5624 32.525 40.5635C32.525 39.4959 32.597 38.3548 32.723 37.1755C35.2381 37.5606 37.7471 37.8135 40.0001 37.8135C42.2531 37.8135 44.762 37.5606 47.2771 37.1755Z" fill="#E8ECFA"/>
<path d="M50.6791 36.5813C50.8346 37.961 50.925 39.3043 50.925 40.5635C50.925 42.4009 50.7328 44.4165 50.4265 46.4622C54.7692 45.5954 58.7834 44.488 60.9337 43.8577C61.6286 43.6539 61.9016 43.5729 62.268 43.4327C62.451 43.3627 62.6189 43.2914 62.8376 43.1915C62.9448 42.3298 63 41.4528 63 40.5635C63 38.2127 62.6145 35.948 61.9007 33.8241L61.7148 33.88C59.4664 34.5343 55.257 35.691 50.6791 36.5813Z" fill="#E8ECFA"/>
<path d="M60.5941 30.7567C58.3338 31.4119 54.4111 32.4767 50.2073 33.3056C49.2391 27.6762 47.5417 22.0615 46.7252 19.5189C52.7973 21.292 57.8027 25.4037 60.5941 30.7567Z" fill="#E8ECFA"/>
<path d="M46.816 33.9054C44.4364 34.2732 42.0839 34.5135 40.0001 34.5135C37.9163 34.5135 35.5638 34.2732 33.1842 33.9054C34.096 28.5788 35.7238 23.1375 36.5561 20.54C36.7691 19.8752 36.8538 19.6141 37.0003 19.2637C37.0736 19.0886 37.1481 18.928 37.2525 18.7188C38.1534 18.6162 39.0703 18.5635 40 18.5635C40.9712 18.5635 41.9284 18.6211 42.8679 18.7328C42.8879 18.8058 42.9063 18.871 42.9245 18.9328C42.9783 19.1152 43.0627 19.3716 43.2042 19.8018L43.219 19.847C43.9286 22.0043 45.8088 28.0214 46.816 33.9054Z" fill="#E8ECFA"/>
<path d="M29.7925 33.3056C30.7564 27.701 32.4425 22.1165 33.2575 19.573L33.2749 19.5188C27.2027 21.292 22.1973 25.4037 19.4059 30.7566C21.6661 31.4119 25.5888 32.4766 29.7925 33.3056Z" fill="#E8ECFA"/>
<path d="M18.0993 33.824C17.3855 35.948 17 38.2127 17 40.5635C17 41.4831 17.059 42.3896 17.1736 43.2796L17.536 43.3951L17.5389 43.3961L17.5425 43.3972L17.545 43.398C17.6616 43.4349 21.081 44.5151 25.584 45.5867C26.8546 45.8891 28.2001 46.188 29.5735 46.4619C29.2672 44.4163 29.075 42.4008 29.075 40.5635C29.075 39.3039 29.1653 37.9606 29.3208 36.5813C24.7418 35.6907 20.5314 34.5336 18.2835 33.8794L18.2679 33.8749L18.0993 33.824Z" fill="#E8ECFA"/>
<path d="M40 51.0135C41.9209 51.0135 44.0282 50.8296 46.1668 50.5366C45.2607 54.6905 44.1029 58.5302 43.4439 60.5869C43.2309 61.2517 43.1462 61.5128 42.9997 61.8633C42.9265 62.0384 42.8519 62.1989 42.7475 62.4081C41.8466 62.5107 40.9297 62.5635 40 62.5635C39.0703 62.5635 38.1534 62.5107 37.2525 62.4081C37.1481 62.1989 37.0736 62.0384 37.0003 61.8633C36.8538 61.5128 36.7691 61.2517 36.5561 60.587C35.8971 58.5304 34.7395 54.691 33.8333 50.5374C35.965 50.8293 38.0725 51.0135 40 51.0135Z" fill="#E8ECFA"/>
<path d="M24.751 48.7891C21.9034 48.1114 19.4782 47.4307 17.9988 46.9962C20.2257 53.9734 25.9806 59.4781 33.2749 61.6081L33.2575 61.554C32.5459 59.3331 31.1701 54.7936 30.1908 49.9468C28.2864 49.5945 26.4349 49.1898 24.751 48.7891Z" fill="#E8ECFA"/>
<path d="M61.9446 47.0128C59.6227 47.6935 54.8767 49.0095 49.8093 49.9462C48.83 54.7933 47.4541 59.3329 46.7425 61.5539L46.7251 61.6081C54.0194 59.4781 59.7743 53.9734 62.0012 46.9962L61.9446 47.0128Z" fill="#E8ECFA"/>
<path d="M17.2416 43.3354C17.3212 43.3453 17.3861 43.3557 17.4077 43.3604C17.4265 43.3649 17.4561 43.3723 17.4668 43.3752L17.4905 43.3817L17.5032 43.3853L17.5166 43.3893L17.5279 43.3926C17.5215 43.3908 17.3938 43.3601 17.2416 43.3354Z" fill="#E8ECFA"/>
</svg>
