<svg width="88" height="21" viewBox="0 0 88 21" fill="none" xmlns="http://www.w3.org/2000/svg">
<g clip-path="url(#clip0_6381_2640)">
<path d="M77.5941 17.9389C81.5844 17.9389 84.7838 14.7125 84.7838 10.7222C84.7838 6.73193 81.5844 3.5325 77.5941 3.5325C73.6038 3.5325 70.4044 6.7589 70.4044 10.7222C70.4134 14.6766 73.6398 17.9389 77.5941 17.9389ZM67.7981 0.917236H87.4261V20.5452H67.7981V0.917236Z" fill="#545456"/>
<path fill-rule="evenodd" clip-rule="evenodd" d="M39.147 13.697C37.9966 16.1954 35.4982 17.9389 32.5774 17.9389C28.7039 17.9389 25.5314 14.8473 25.3877 11.0008H42.4004V0.917236H22.7814V20.5452H42.4093V13.697H39.147ZM25.7022 8.58329H39.4076C38.4011 5.24006 35.7049 3.5325 32.5864 3.5325C29.4678 3.5325 26.565 5.3569 25.7022 8.58329Z" fill="#545456"/>
<path d="M20.1391 0.917236H0.511169V20.5452H20.1391V13.697H16.8858C15.7624 16.1954 13.237 17.9389 10.3431 17.9389C6.35283 17.9389 3.12644 14.6856 3.12644 10.7222C3.12644 6.7589 6.35283 3.5325 10.3431 3.5325C13.2909 3.5325 15.8163 5.32994 16.9397 7.88229H20.1391V0.917236Z" fill="#545456"/>
<path d="M65.3446 13.697H62.0912C61.1116 16.2763 58.4694 17.912 55.4677 17.912C51.5942 17.912 48.3319 15.108 48.3319 10.7222V0.917236H45.0156V20.5452H65.3446V13.697Z" fill="#545456"/>
</g>
<defs>
<clipPath id="clip0_6381_2640">
<rect width="86.9958" height="19.6819" fill="white" transform="translate(0.47522 0.881348)"/>
</clipPath>
</defs>
</svg>
